<?xml version="1.0" standalone="no"?>
<!DOCTYPE svg PUBLIC "-//W3C//DTD SVG 1.1//EN" "http://www.w3.org/Graphics/SVG/1.1/DTD/svg11.dtd" >
<svg xmlns="http://www.w3.org/2000/svg">
<metadata>
Created by FontForge 20120731 at Wed Aug 19 11:13:16 2015
 By Ads
</metadata>
<defs>
<font id="iconfont" horiz-adv-x="1024" >
  <font-face 
    font-family="iconfont"
    font-weight="500"
    font-stretch="normal"
    units-per-em="1024"
    panose-1="2 0 6 3 0 0 0 0 0 0"
    ascent="812"
    descent="-212"
    x-height="792"
    bbox="0 -212 1085 812"
    underline-thickness="50"
    underline-position="-100"
    unicode-range="U+0078-F023F"
  />
<missing-glyph horiz-adv-x="374" 
d="M34 0v682h272v-682h-272zM68 34h204v614h-204v-614z" />
    <glyph glyph-name=".notdef" horiz-adv-x="374" 
d="M34 0v682h272v-682h-272zM68 34h204v614h-204v-614z" />
    <glyph glyph-name=".null" horiz-adv-x="0" 
 />
    <glyph glyph-name="nonmarkingreturn" horiz-adv-x="341" 
 />
    <glyph glyph-name="x" unicode="x" horiz-adv-x="1001" 
d="M281 543q-27 -1 -53 -1h-83q-18 0 -36.5 -6t-32.5 -18.5t-23 -32t-9 -45.5v-76h912v41q0 16 -0.5 30t-0.5 18q0 13 -5 29t-17 29.5t-31.5 22.5t-49.5 9h-133v-97h-438v97zM955 310v-52q0 -23 0.5 -52t0.5 -58t-10.5 -47.5t-26 -30t-33 -16t-31.5 -4.5q-14 -1 -29.5 -0.5
t-29.5 0.5h-32l-45 128h-439l-44 -128h-29h-34q-20 0 -45 1q-25 0 -41 9.5t-25.5 23t-13.5 29.5t-4 30v167h911zM163 247q-12 0 -21 -8.5t-9 -21.5t9 -21.5t21 -8.5q13 0 22 8.5t9 21.5t-9 21.5t-22 8.5zM316 123q-8 -26 -14 -48q-5 -19 -10.5 -37t-7.5 -25t-3 -15t1 -14.5
t9.5 -10.5t21.5 -4h37h67h81h80h64h36q23 0 34 12t2 38q-5 13 -9.5 30.5t-9.5 34.5q-5 19 -11 39h-368zM336 498v228q0 11 2.5 23t10 21.5t20.5 15.5t34 6h188q31 0 51.5 -14.5t20.5 -52.5v-227h-327z" />
    <glyph glyph-name="uni3432" unicode="&#x3432;" 
d="M937 289q-2 2 -5 7t-13 16.5t-20 21t-24 16.5t-27 7q-9 0 -19.5 -3.5t-19.5 -10t-18 -14t-16 -15t-12 -14t-8 -10.5l-3 -4q0 1 -1 2.5t-4.5 6.5t-7.5 10t-9.5 11.5t-11.5 12t-13 11t-14.5 9.5t-15.5 6.5t-16 1.5q-49 -1 -79 -64v-272q-3 -28 -5 -41.5t-7 -27.5
q-9 -26 -32 -46q-22 -20 -46 -28q-19 -6 -51 -6q-15 0 -28 2t-25 7q-23 8 -39 25q-8 8 -14 18t-10 21q-9 24 -9 60v26h75q0 -65 9 -77q12 -18 41 -19q7 0 14.5 2t11.5 4l4 2l3 3q2 2 6 7.5t6 9.5q3 11 3 22q2 22 2 34v279q-2 2 -10.5 13t-14.5 17t-15.5 14.5t-20 12.5
t-21.5 4q-16 -1 -32 -8t-27.5 -17.5t-21.5 -20.5t-15 -17l-5 -7q-1 1 -3 3.5t-8.5 10t-13 14t-16 14.5t-18 14t-18 10t-16.5 4q-17 0 -39.5 -17.5t-37.5 -35.5l-14 -17q-1 7 -0.5 20.5t6 52t16.5 74.5t37 81t62.5 79.5t97 61.5t136.5 35l53 74l52 -74q241 -15 322 -214
q38 -95 33 -190z" />
    <glyph glyph-name="uni3435" unicode="&#x3435;" 
d="M849 -127h-277v286h342v-221q0 -11 -3.5 -21t-9.5 -18t-14 -14t-18 -9t-20 -3zM572 493q-9 3 -14.5 4.5t-13.5 5t-12 6.5q0 1 -0.5 1.5t-1.5 0.5v-1l-1 -1q-7 -6 -13.5 -9.5t-14.5 -6.5v-263h-360v227q0 27 19 46t46 19h151q-28 15 -47 33q-29 27 -43 61t-9 66t28 53
q29 28 75 28q31 0 62 -13t57 -37q10 -10 19.5 -21t17 -23t13.5 -25q7 13 14.5 25t16.5 23t20 21q53 50 119 50q45 0 75 -28q35 -32 27.5 -85t-52.5 -95q-19 -18 -46 -33h145q27 0 46 -19t19 -46v-227h-342v263zM435 664q-16 15 -35.5 23.5t-38.5 8.5q-20 0 -30 -9l-1 -1
t-2.5 -3t-2 -4.5t-1.5 -6t-1 -6.5q0 -33 33 -63q14 -13 33.5 -24t40 -17.5t37.5 -6.5q6 0 10 1t5 2h2q5 11 -8.5 46t-40.5 60zM578 557l2 -1q2 0 5.5 -0.5t7.5 -0.5q26 0 58 14t54 34q11 11 19 23t10.5 21.5t2.5 17.5q0 4 -0.5 7.5t-1.5 6t-2 4.5t-2 2.5t-2 1.5q-10 9 -29 9
t-38.5 -8.5t-35.5 -23.5q-28 -25 -41 -60t-7 -47zM501 -127h-295q-27 0 -46 19t-19 46v221h360v-286z" />
    <glyph glyph-name="uni3436" unicode="&#x3436;" 
d="M741 79q1 4 4 13t4.5 15t4 18.5t3 26.5t0.5 37t-1 52q49 50 88 109t60.5 115t36 105t19.5 93.5t6.5 63t1.5 30.5v1v0v0h-1q-16 0 -40.5 -1.5t-87.5 -13t-121.5 -32t-133 -63.5t-132.5 -102q-42 0 -61.5 1t-40.5 -2t-26.5 -4t-18 -5t-16.5 -5q-39 -11 -113.5 -89
t-84.5 -116q-5 -17 0 -29.5t17.5 -18t21.5 -8t19 -3.5q6 0 38.5 1.5t60 1t31.5 -6.5q1 0 1.5 -0.5t1.5 -2.5l4 -4q1 -2 3 -5.5t3.5 -7.5t2.5 -9.5t2 -11.5q0 -23 10.5 -51t26.5 -47v0v-1l1 1q18 -16 46 -26.5t51 -11.5q8 0 15.5 -2t12 -4.5t7.5 -4.5t5 -4l1 -2q9 -6 5 -107
q-1 -18 -1 -23q1 -10 3.5 -19t8 -21.5t18 -17.5t29.5 0q24 6 70.5 43.5t87 83t47.5 71.5zM596 386q-30 30 -30 72.5t30 72.5q20 19 46 26t52.5 0t46.5 -26q30 -30 30 -72.5t-30 -72.5t-72.5 -30t-72.5 30zM359 42q-43 7 -72 36q-29 28 -35 71q-3 14 -8.5 23.5t-13.5 13
t-17 2.5q-14 -2 -46 -37.5t-35 -51.5q-2 -10 5.5 -13.5t21 -6t20.5 -8.5q6 -6 6.5 -16.5t-3.5 -24t-8.5 -24.5t-9.5 -22q-12 -24 -4 -34q9 -8 33 5q69 34 87 14q6 -6 8.5 -19.5t6 -21t13.5 -5.5q17 3 52 35t37 46q2 9 -2 17t-13.5 13.5t-22.5 7.5z" />
    <glyph glyph-name="uni3438" unicode="&#x3438;" 
d="M772 351q7 7 8.5 16.5t-3 18.5t-13.5 14l-199 100l35 219q3 21 -16 31q-17 8 -34 -8l-153 -152l-205 98q-9 4 -20.5 3.5t-18.5 -7.5l1 -1q-16 -15 -5 -37l99 -205l-153 -150q-7 -7 -9.5 -15.5t1.5 -17.5q9 -18 30 -14l222 33l102 -197q5 -9 14 -13.5t19 -3t17 8.5
q7 8 9 17l35 218l220 35q10 2 17 9zM629 283l-65 -8l-9 -55l299 -336q46 12 69 35q13 13 24 32.5t16.5 32t5.5 14.5z" />
    <glyph glyph-name="uni343C" unicode="&#x343c;" 
d="M645 357q12 0 28.5 8t34.5 15.5t35.5 10.5t32 -8.5t23 -41t8.5 -85.5v-357q0 -23 -10.5 -43.5t-28.5 -35.5t-43.5 -23.5t-55.5 -8.5h-327q-22 0 -43 8.5t-37 23.5t-26 35.5t-10 43.5v357q1 55 10.5 84t24.5 40t33 9t35.5 -9t32 -15t23.5 -8h21q8 0 14.5 4t11.5 10.5
t7.5 13.5t2.5 13v220h-7q-11 0 -18 6.5t-7 15t7 15t18 6.5h7v13h-7q-11 0 -18 6.5t-7 15t7 15t18 6.5h7v6v4v4h-7q-11 0 -18 6t-7 15t7 15t18 6h14q8 21 30.5 30t69.5 9q37 0 55.5 -5t27 -16t9.5 -28t1 -40v-55q0 -24 -8 -33.5t-18.5 -16t-18.5 -14.5t-6 -28v-178
q0 -14 11.5 -27.5t24.5 -13.5h18zM613 -72q0 12 -10 20.5t-23 8.5h-127q-14 0 -24 -8.5t-10 -20.5v-2q0 -11 10 -20t24 -9h127q13 0 23 9t10 20v2zM519 0q28 0 52.5 10.5t42.5 29t29 43t11 52.5t-11 52.5t-29 42.5t-42.5 29t-52.5 11t-52 -11t-42 -29t-29 -42.5t-11 -52.5
t11 -52.5t29 -43t42 -29t52 -10.5zM519 228q19 0 36 -7.5t29.5 -20t20 -29.5t7.5 -36t-7.5 -36t-20 -29.5t-29.5 -20t-36 -7.5t-36 7.5t-29 20t-19.5 29.5t-7.5 36t7.5 36t19.5 29.5t29 20t36 7.5z" />
    <glyph glyph-name="uni3448" unicode="&#x3448;" 
d="M820 15q0 -25 -10 -47t-27.5 -38.5t-41 -26t-51.5 -9.5h-357q-28 0 -51.5 9.5t-41 26t-27.5 38.5t-10 47v675q0 25 10 47.5t27.5 39t41 26t51.5 9.5h357q28 0 51.5 -9.5t41 -26t27.5 -39t10 -47.5v-675zM739 642h-456v-578h456v578zM511 36q-21 0 -36.5 -15t-15.5 -37
t15.5 -37.5t36.5 -15.5q22 0 37 15.5t15 37.5t-15 37t-37 15zM592 727q0 8 -5 12.5t-12 4.5h-128q-5 0 -10.5 -4.5t-5.5 -12.5t5 -12.5t11 -4.5h128q7 0 12 4.5t5 12.5z" />
    <glyph glyph-name="uni344D" unicode="&#x344d;" horiz-adv-x="1026" 
d="M1025 32h-128v-60q0 -26 -18.5 -44.5t-44.5 -18.5h-65q-27 0 -45 18.5t-18 44.5v60h-384v-60q0 -26 -19 -44.5t-46 -18.5h-64q-27 0 -45.5 18.5t-18.5 44.5v60h-129v201q0 58 36.5 89.5t91.5 35.5q4 18 13 47.5t18.5 64t20 68.5t20.5 61q27 78 115 78h398q40 0 65.5 -22
t35.5 -52l22 -63q11 -35 22.5 -70t22 -65t16.5 -47q55 -5 91.5 -36.5t36.5 -88.5v-201zM126 164q27 0 45.5 18.5t18.5 45t-18.5 45.5t-45.5 19t-45.5 -19t-18.5 -45.5t18.5 -45t45.5 -18.5zM794 357l-38 188h-488l-34 -188h560zM896 164q27 0 46.5 19.5t19.5 45.5
q0 28 -19.5 47t-46.5 19q-28 0 -47 -19t-19 -47q0 -26 19 -45.5t47 -19.5z" />
    <glyph glyph-name="uni344E" unicode="&#x344e;" horiz-adv-x="1086" 
d="M321 420l455 2l-218 -550zM373 620l347 -3l62 -134l-451 3zM274 490l-274 114l147 110l176 -91zM0 538l260 -116l279 -546zM842 423l243 126l-512 -670zM837 491l-69 141l157 87l135 -114zM368 687l-59 16l-112 62l131 47h428l130 -54l-125 -61l-42 -10h-351z" />
    <glyph glyph-name="uni344F" unicode="&#x344f;" 
d="M362 429.5q0 -20.5 -14.5 -35t-35 -14.5t-35 14.5t-14.5 35t14.5 35t35 14.5t35 -14.5t14.5 -35zM362 429.5q0 -20.5 -14.5 -35t-35 -14.5t-35 14.5t-14.5 35t14.5 35t35 14.5t35 -14.5t14.5 -35zM797 429q0 -20 -14.5 -34.5t-35 -14.5t-35 14.5t-14.5 35t14.5 35
t34.5 14.5q14 0 25.5 -7t18 -18t6.5 -25zM852 -127h-653q-41 0 -70.5 29t-29.5 70v508q0 42 29.5 71t70.5 29h653q42 0 71 -29t29 -71v-508q0 -20 -8 -38.5t-21.5 -31.5t-31.5 -21t-39 -8zM199 526q-7 0 -14 -2.5t-12.5 -6.5t-10 -9.5t-6.5 -12.5t-2 -15v-508
q0 -18 13 -31.5t32 -13.5h653q19 0 32.5 13.5t13.5 31.5v508q0 10 -4 18t-10 14.5t-14.5 10t-17.5 3.5h-653zM771 435h-55v227q0 6 -1.5 12t-4.5 11t-7 9t-9 7t-11 4.5t-12 1.5h-290q-19 0 -32.5 -13t-13.5 -32v-227h-54v227q0 27 13.5 50t36.5 36.5t50 13.5h290
q41 0 70.5 -29.5t29.5 -70.5v-227z" />
    <glyph glyph-name="uni3452" unicode="&#x3452;" 
d="M1013 479q-28 39 -59.5 83.5t-69 98t-59.5 84.5q-9 15 -26 15h-303h-19h-276q-13 0 -21 -9l-1 -1q-2 -2 -4 -5q-26 -42 -80.5 -131t-83.5 -135q-11 -18 3 -35q1 0 1.5 -0.5t0.5 -1.5q78 -99 232.5 -297t231.5 -296q10 -13 23 -11q5 0 10 2.5t10 8.5q59 73 153.5 188
t177.5 217t154 188l2 4q14 17 3 33zM929 494h-184q8 22 20 54.5t23 62.5t20 55q20 -29 60.5 -86.5t60.5 -85.5zM501 686q20 -29 41 -59.5t50 -73t41 -59.5h-267q107 151 135 192zM659 434q-37 -101 -54.5 -149t-48 -130.5t-54.5 -148.5q-95 267 -155 428h312zM690 517
q-26 37 -126 183h193q-12 -33 -34.5 -94.5t-32.5 -88.5zM314 523q-35 92 -69 177h193q-65 -92 -124 -177zM195 664q32 -81 66 -170h-170q49 79 104 170zM284 434q62 -166 159 -442q-193 248 -345 442h186zM723 434h201q-88 -108 -365 -446q13 35 28 75.5t26 71.5t28.5 77.5
t26.5 71t28 77.5t27 73z" />
    <glyph glyph-name="uni3455" unicode="&#x3455;" 
d="M8 368v-176q0 -36 7.5 -68t21 -57t30 -46.5t37 -38t39.5 -29.5t40 -22.5t35.5 -15t28.5 -9.5v-71h533v71q16 5 33 11.5t41.5 19t46 28.5t44 39.5t38 51.5t26 66t10.5 81v165h-1011zM964 203q0 -42 -12 -78.5t-29.5 -61t-41.5 -44.5t-44.5 -31t-43 -19.5t-31.5 -11
t-15 -3.5l-22 -4v-60h-423v60l-23 4q-71 14 -131 62q-85 69 -85 176v29h901v-18zM964 258h-901v55h901v-55zM430 699h570v-55h-570v55zM26 699h55v-55h-55v55zM26 589h55v-55h-55v55zM430 589h570v-55h-570v55zM92 392q38 8 58 33.5t23 49.5v207q0 16 10.5 27t19.5 14.5
t13 3.5v55q-31 0 -64.5 -26.5t-33.5 -73.5v-201q-6 -28 -38 -35zM202 392q27 6 46 22t26 31t9 30v207q0 16 10.5 27t19.5 14.5t14 3.5l-1 55q-18 0 -39.5 -10t-40 -33.5t-18.5 -56.5v-201q-5 -28 -38 -35zM312 392q39 8 59 33.5t23 49.5v207q0 16 10 27t19 14.5t14 3.5v55
q-32 0 -65 -26.5t-33 -73.5v-201q-6 -28 -38 -35z" />
    <glyph glyph-name="uni3457" unicode="&#x3457;" 
d="M751 29h-496v684h496v-684zM306 80h394v581h-394v-581zM548 -56q0 -7 -2 -13.5t-6 -11.5t-9 -9t-11.5 -6t-13.5 -2q-17 0 -29.5 12.5t-12.5 29.5q0 11 6 21t15.5 15.5t20.5 5.5q18 0 30 -12.5t12 -29.5zM749 -194h-492q-12 0 -23.5 3.5t-21 9t-17.5 13.5t-13.5 17.5
t-8.5 21t-3 22.5v818q0 36 25.5 61.5t61.5 25.5h492q24 0 44 -11.5t32 -32t12 -43.5v-818q0 -36 -26 -61.5t-62 -25.5zM257 747q-5 0 -9.5 -1.5t-8.5 -4t-7.5 -5.5t-6 -7t-3.5 -8.5t-1 -9.5v-818q0 -14 10.5 -24.5t25.5 -10.5h492q15 0 25.5 10.5t10.5 24.5v818q0 25 -23 33
q-6 3 -13 3h-492z" />
    <glyph glyph-name="uni345E" unicode="&#x345e;" 
d="M354 377h343q23 0 42 11.5t30 30.5t11 42v267q0 23 -11 42.5t-30 30.5t-42 11h-343q-14 0 -26.5 -4t-23 -12t-18 -18t-12 -23t-4.5 -27v-267q0 -35 24.5 -59.5t59.5 -24.5zM327 728q0 8 3.5 14t9.5 9.5t14 3.5h343q11 0 19 -7.5t8 -19.5v-267q0 -7 -3.5 -13.5t-10 -10
t-13.5 -3.5h-343q-5 0 -9 1.5t-7 4t-5.5 5.5t-4 7.5t-1.5 8.5v267zM927 491h-55q-12 0 -23.5 -3.5t-21.5 -9t-18.5 -14t-15 -18t-10 -20.5t-3.5 -22v-50q-14 4 -26 4h-457q-13 0 -27 -4v50q0 36 -23.5 61.5t-57.5 25.5h-55q-35 0 -63 -26.5t-28 -60.5v-459q0 -34 28 -65.5
t63 -31.5h61v-38h75v38h529v-38h76v38h52q34 0 57 30.5t23 66.5v459q0 37 -23 62t-57 25zM270 275q0 11 8 19t19 8h457q11 0 18.5 -8t7.5 -19v-135q0 -6 -2 -11t-5.5 -8.5t-8.5 -5.5t-10 -2h-457q-11 0 -19 8t-8 19v135zM950 -55q0 -14 -7.5 -27t-15.5 -13h-793
q-10 0 -22 14t-12 26v459q0 11 11 20.5t23 9.5h55q11 0 17.5 -9t6.5 -21v-348h84h457h83v84v135v129q0 10 11.5 20t23.5 10h55q11 0 17 -9t6 -21v-459z" />
    <glyph glyph-name="uni3464" unicode="&#x3464;" 
d="M881 292l-483 520h-223l483 -520l-483 -484h223z" />
    <glyph glyph-name="uni3465" unicode="&#x3465;" 
d="M658 -192h223l-483 484l483 520h-223l-483 -520z" />
    <glyph glyph-name="uni346C" unicode="&#x346c;" horiz-adv-x="1031" 
d="M999 769h-945q-5 0 -9.5 -1.5t-8.5 -4.5t-7 -7t-4.5 -8.5t-1.5 -9.5v-294q0 -13 9 -22.5t22 -9.5h116v-514q0 -8 4 -15.5t11.5 -11.5t15.5 -4h651q9 0 16 4t11 11.5t4 15.5v514h116q13 0 22 9.5t9 22.5v294q0 13 -9 22t-22 9zM683 706q-7 -47 -36 -77q-19 -20 -47.5 -30
t-65.5 -10q-40 0 -70.5 11.5t-48 31t-26.5 37t-13 37.5h307zM233 -70v42h588v-42h-588zM967 475h-115q-9 0 -16 -4t-11 -11.5t-4 -15.5v-430h-588v430q0 13 -9.5 22t-22.5 9h-115v231h247q4 -19 10.5 -37.5t22 -41.5t36 -40t55 -28.5t77.5 -11.5q31 0 57 6t48 18t39 29
q39 42 48 106h241v-231z" />
    <glyph glyph-name="uni346D" unicode="&#x346d;" horiz-adv-x="1031" 
d="M816 340h-106q-45 0 -78.5 11.5t-54.5 34.5q-41 43 -39 111v213q0 9 -4.5 16.5t-12.5 12t-17 4.5h-448q-14 0 -23.5 -10t-9.5 -23v-672v-6v-6v-89q0 -19 16 -29q5 -7 12.5 -11.5t16.5 -4.5h929q14 0 24 10t10 24v112v79q0 47 -15.5 86t-38.5 63t-53 41t-56.5 24t-51.5 9z
M90 676h381v-177v-7q0 -4 0.5 -14.5t2 -21.5t5.5 -26.5t10 -29.5t16 -30t22 -29q64 -68 183 -68h104q7 -1 18 -2.5t36.5 -11.5t44.5 -25t35 -45.5t16 -71.5v-46h-874v605zM964 -41h-874v45h874v-45zM380.5 637q-12.5 0 -21.5 -9t-9 -22t9 -22t22 -9q8 0 15 4.5t11 11.5t4 15
q0 13 -9 22t-21.5 9zM381 535q-13 0 -22 -8.5t-9 -21.5q0 -6 2.5 -12t6.5 -10t10 -6.5t12 -2.5q12 0 21 9t9 22q0 8 -4 15t-11 11t-15 4zM381 434q-4 0 -7.5 -0.5t-6.5 -2t-5.5 -4t-4.5 -5t-3.5 -5.5t-2.5 -6.5t-1 -6.5q0 -5 1 -9t3 -7t5 -6t6.5 -5t7.5 -3t8 -1q12 0 21 9
t9 21.5t-9 21.5t-21 9z" />
    <glyph glyph-name="uni3479" unicode="&#x3479;" 
d="M1000 317q-2 16 -16 29.5t-34 22t-36 13.5t-32 8q-33 6 -191 4q-6 11 -19 33.5t-29 49.5q44 39 56 54q11 13 7 21.5t-13 12.5t-20 4h-27h-36h-20q-35 61 -61 105t-37 61q-26 41 -68 32q-28 -6 -33 -25q-1 -4 0 -7q3 -28 85 -345h-2h-4h-2q-107 -4 -205 -23q-13 14 -28 30
t-39 42.5t-39 43.5q-11 12 -21.5 17.5t-17.5 4t-12 -6t-7 -10.5t-2 -11q8 -44 38 -145q-12 -3 -18.5 -7t-6.5 -8h-1h1q0 -3 3 -6t8.5 -5.5t13.5 -4.5q-1 -2 -2.5 -6t-4 -13t-5 -18.5t-5.5 -21.5l-6 -22l-6 -24q-3 -11 -5 -21.5t-4 -18.5q0 -5 2 -11t7 -10.5t12 -6t17.5 4
t21.5 18.5q37 42 106 116q98 -20 205 -23h4h4q-9 -35 -19.5 -76t-26.5 -105t-27 -110t-12 -55t5.5 -17t18.5 -11.5t25 -3.5t27.5 8t24.5 24q5 9 15.5 26t24 40t27.5 47t31 53h20h36h27q8 0 15.5 2.5t13 7t5.5 12t-8 16.5q-12 16 -56 55q31 52 48 82q78 0 127 1t64 4
q11 2 24.5 6t29.5 10.5t29.5 14.5t23 19t11.5 23z" />
    <glyph glyph-name="uni347E" unicode="&#x347e;" 
d="M528 766q-92 0 -175 -35.5t-143.5 -95.5t-96 -143.5t-35.5 -175t35.5 -174.5t96 -143.5t143.5 -96t174.5 -35.5t175 35.5t143.5 96t95.5 143.5t35.5 175q0 171 -113 298q-110 123 -272 147q-32 4 -64 4zM793 147q-1 -6 -2.5 -12t-3 -11t-2.5 -10q-13 -55 -86 -52h-67
q-77 -3 -75 70v157l-75 -2q12 -177 -188 -240q-4 7 -9 15q-6 9 -14 20q-5 7 -8 12q-4 5 -6 9q99 31 129 67q34 34 34 112h-25q-9 -1 -17 -1.5t-14.5 -1t-11.5 -1.5q-16 -2 -24 -4l-30 57q31 13 54 36q50 41 99 94h-186v58h239q0 3 -6 19q-5 16 -8 25q-3 11 -5 16l68 7
q1 -3 2 -7.5t3 -9.5q4 -11 8 -27l5 -14q0 -3 0.5 -5.5t1.5 -3.5h218v-58h-260q-38 -38 -71 -69t-61 -54l244 6q-2 3 -5.5 6.5t-7.5 8t-8.5 8.5t-10.5 9q-5 6 -9.5 10t-8.5 7.5t-7.5 6.5t-5.5 5l40 32q39 -34 79 -69q42 -37 80 -71l-46 -42l-36 36l-79 -2v-140
q-1 -19 8.5 -28t29.5 -7h31q21 0 32 7.5t14 23.5q3 23 5 35q1 8 2 15t1 13q13 -5 29 -12l6 -2l8 -4q3 -1 6.5 -2t7.5 -2q-2 -22 -5 -39z" />
    <glyph glyph-name="uF0040" unicode="&#xf0040;" 
d="M917 546q-22 11 -20 37q1 14 -0.5 24t-3 13.5t-7.5 10.5l-6 7q-4 5 -16 8t-27 5t-19 3q-7 2 -18.5 30t-19.5 34q-9 5 -22.5 4.5t-30 -13t-25.5 -33.5q-9 -19 -9 -57.5t4 -67.5l5 -29q-1 -4 -4.5 -7t-7.5 -3t-8.5 0.5t-7.5 0.5l-3 1q-26 7 -53 9t-40 1l-14 -2
q-45 -6 -82.5 -20t-65 -32.5t-49.5 -41.5q-37 -35 -61 -80.5t-31.5 -76t-7.5 -53.5q0 -26 5 -55t7.5 -39.5t-0.5 -22.5q-1 -2 -5.5 -2.5t-14.5 1t-21 3.5t-28.5 4t-34.5 2q-34 2 -62.5 -7.5t-41 -21t-12.5 -20.5q1 -5 6.5 -10t11 -8t15 -7t11.5 -5q22 -11 20 -37
q1 -13 0.5 -19.5t2.5 -13.5t4 -9t5 -6.5t6 -6.5q2 -4 10.5 -6.5t17.5 -4t19 -3t14 -2.5q7 -2 19 -30t19 -34q10 -5 23.5 -4.5t29.5 13t26 33.5q19 43 0 154q1 7 8.5 9t14.5 0l7 -1q17 -5 34 -7.5t30 -2.5h23q10 0 15 1l5 1q126 18 198 94q53 50 76 110t23 100q1 26 -4 55
t-8 39.5t1 21.5q0 3 5 3.5t14.5 -1t21 -3.5t29 -4t33.5 -3q35 -1 63 8.5t41 21t12 20.5q0 4 -3.5 8t-9 7t-10.5 5.5t-11.5 5.5t-9.5 4z" />
    <glyph glyph-name="uF004C" unicode="&#xf004c;" 
d="M989 425h-357l134 133q-20 20 -43 37t-48 29.5t-51 21t-54 13t-57 4.5q-47 0 -92 -12t-85.5 -35.5t-74.5 -57.5q-10 -10 -19 -20.5t-17.5 -22t-15.5 -23.5t-13.5 -24t-12 -25t-9.5 -26.5t-7.5 -27t-5.5 -27t-3 -28t-1 -28.5q0 -71 27 -136.5t77.5 -116t115.5 -77.5
t136.5 -27t136.5 27t116 78q8 8 16 17l89 -78q-66 -76 -159 -119t-199 -43q-96 0 -184 37.5t-152 101t-101.5 151.5t-37.5 185t37.5 185t101.5 151.5t152 101.5t184.5 38t183.5 -37t153 -103l139 140v-357z" />
    <glyph glyph-name="uF0052" unicode="&#xf0052;" 
d="M510 513q-27 66 -73 109t-96 56.5t-101 2.5t-90.5 -44.5t-63.5 -94t-21 -137.5q1 -25 7 -49.5t15.5 -45t23 -40t28.5 -36t33 -33.5t35.5 -30.5t36.5 -28t35.5 -26.5t34 -26t30.5 -26q46 -43 97.5 -87t69.5 -62q12 12 64 56t103 93q18 19 50 44.5t59 46t57.5 49.5
t52.5 57.5t38.5 66.5t20.5 79q10 113 -42.5 186t-128 87t-155.5 -29t-120 -138z" />
    <glyph glyph-name="uF0054" unicode="&#xf0054;" 
d="M285 685v-74q11 0 21.5 -2t21 -5t20 -8t19 -11.5t18 -14.5t17 -17.5t15.5 -20.5t13.5 -23t12.5 -25q8 -20 27 -32.5t41 -12.5t40.5 12.5t27.5 32.5q18 43 47.5 72t58.5 40t58 11q60 0 99 -42q48 -53 39 -151q-3 -28 -15 -55.5t-25.5 -47.5t-39.5 -45t-42.5 -38.5
t-48.5 -38.5q-59 -46 -84 -70q-51 -49 -114 -103q-1 1 -14 12q-17 15 -29 25t-32.5 28.5t-41.5 38.5q-25 23 -83 66q-23 17 -35 26.5t-33 26.5t-32.5 29t-26.5 30t-23 34t-14 35.5t-6 40.5q-5 106 50 163q39 40 93 40v74zM285 685q-44 0 -84 -18.5t-70.5 -53t-48 -88.5
t-14.5 -120q1 -49 21 -93t53.5 -78.5t65.5 -60.5t74 -57t63 -50q46 -43 97 -87t70 -62q12 12 35 31t57.5 49.5t72.5 68.5q21 20 61.5 51.5t72 58t65 61.5t54 78t24.5 92q5 52 -4 97t-29 77t-48 55t-61 34t-69 11q-13 0 -27 -1.5t-27.5 -5t-26.5 -8.5t-26 -11.5t-25 -15
t-23.5 -18.5t-22.5 -22t-20.5 -25.5t-18 -28.5t-15.5 -32q-35 84 -96.5 128t-129.5 44z" />
    <glyph glyph-name="uF0068" unicode="&#xf0068;" 
d="M464 -117q-46 42 -96 86q-26 23 -50 43.5t-45 39.5q-26 21 -51.5 42.5t-51.5 42.5q-5 -1 -10 -1h-9q-8 -1 -17 -1h-16q-24 0 -39 15q-8 7 -11.5 16t-3.5 19v226h1l-1 1q0 25 15.5 41t38.5 16h52q82 70 149 125q29 25 57 47q13 12 26 22.5t24 19.5q23 19 37 32
q16 12 19 15q27 19 43.5 17.5t26 -16t13 -35t3.5 -37.5v-726q0 -17 -6 -36t-19 -30.5t-33 -9.5q-10 1 -21.5 7.5t-24.5 18.5zM754 415q18 -26 29.5 -52.5t11.5 -63.5q0 -36 -12 -65q-2 -5 -4.5 -10.5t-5.5 -11t-6 -10.5t-6.5 -10t-6.5 -10q-4 -5 -8 -9l-8 -8q-4 -4 -9 -6
t-11 -2q-16 0 -28 12q-3 4 -5.5 8.5t-4 9t-1.5 10.5q0 7 3 14h-1q5 10 11 19t12 18.5t10 21.5q2 6 3 13t1 16q0 16 -4 28l-10 22q-2 2 -4 5l-2 4l-4 6l-2 4l-4 6q-2 3 -3.5 6t-2.5 7q-3 6 -3 14q0 16 11.5 27.5t27.5 11.5q6 0 11 -1.5t9 -5.5q8 -8 16 -18zM804 13
q-6 -4 -12 -6t-13 -2q-18 0 -31 13t-13 31q0 6 1.5 12t5 11.5t8.5 9.5l2 1l2 2l1 1q12 8 23.5 18t22.5 22q22 23 38 50.5t25 58.5t9 64q0 67 -34 122.5t-85 91.5q-19 13 -19 36q0 9 3 16.5t10 14.5q13 13 31 13q15 0 27 -10q33 -23 61.5 -54t49 -67.5t32.5 -77.5t12 -85
q0 -45 -12 -86t-33 -78t-49.5 -68t-62.5 -54z" />
    <glyph glyph-name="uF0077" unicode="&#xf0077;" 
d="M511.5 746q-90.5 0 -173 -35.5t-142 -95t-94.5 -141.5t-35 -172.5t35 -173t94.5 -142t142 -94.5t173 -35t172.5 35t141.5 94.5t95 142t35.5 173t-35.5 172.5t-95 141.5t-141.5 95t-172.5 35.5zM511 -98q-108 0 -200 53.5t-145.5 145.5t-53.5 200.5t53.5 200.5
t145.5 145.5t200 53.5q82 0 156 -31.5t127.5 -85t85 -127.5t31.5 -156q0 -65 -20 -126t-57 -110t-86.5 -86t-110.5 -57t-126 -20zM473 133q10 0 16.5 7.5t6.5 18.5v139h170l11 2q16 6 16 25v148q0 18 -16 24q-2 2 -5 2.5t-6 0.5h-191h-1h-1q-9 0 -16 -6q0 -1 -0.5 -1
t-0.5 -1q-7 -7 -7 -15v-1v-1v-1v-315q0 -11 7 -18.5t17 -7.5zM496 453h150v-31h-150v31zM496 375h150v-30h-150v30zM686 110h-308v2v224q0 8 -4 14t-11 9l-4 2q-2 1 -4.5 1.5t-5.5 0.5h-50q-10 0 -18 -7t-8 -17t8 -17t18 -7h34v-203q0 -1 1 -2h-27q-7 0 -12.5 -3t-9 -8.5
t-3.5 -11.5q0 -9 7 -15.5t18 -6.5h379q5 0 9.5 2t8 5t5.5 7t2 8q0 10 -7.5 16.5t-17.5 6.5zM335 416q3 -10 11.5 -14.5t17 -1t12.5 12.5t0 18l-20 55q-4 9 -12.5 13.5t-17.5 1.5q-5 -2 -9 -7t-4.5 -11t1.5 -12zM666 239q5 8 3 17.5t-10 14.5t-17 2t-14 -12l-21 -31v-1l-1 -1
l-55 43q-5 5 -11.5 6t-12.5 -0.5t-9 -6.5q-6 -7 -5 -16.5t9 -16.5l128 -100q5 -5 11 -6t12 0.5t10 6t4.5 11t-1.5 12t-7 10.5l-39 30q4 3 6 7z" />
    <glyph glyph-name="uF007E" unicode="&#xf007e;" 
d="M512 744q-52 0 -101.5 -11.5t-93.5 -33.5t-82 -52t-68.5 -68.5t-52.5 -82t-33.5 -93.5t-11.5 -101q0 -90 35 -172t94.5 -141.5t141.5 -94.5t172 -35t171.5 35t141 94.5t94.5 141.5t35 172t-35 172t-94.5 141t-141 94t-171.5 35zM512 -96q-81 0 -155 31.5t-127 84.5
t-84.5 127t-31.5 155q0 108 53 199.5t145 145t200 53.5t199.5 -53.5t144.5 -145t53 -199.5q0 -156 -105 -270q-104 -112 -255 -126q-19 -2 -37 -2zM731 426l-1 1q-1 0 -1 1q-1 1 -2.5 2t-3.5 2t-4 1.5t-4 0.5h-1h-1h-1h-34l23 40q5 8 3 17.5t-10 14.5q-5 3 -11 2.5
t-11.5 -3.5t-8.5 -9l-32 -55l-2 -7h-13l-2 7l-32 55q-5 9 -14 11.5t-17 -2t-10 -14t3 -17.5l23 -40h-44h-1h-1h-1q-4 0 -7.5 -2t-6.5 -4q0 -1 -1 -1l-1 -1q-3 -3 -4.5 -6.5t-1.5 -7.5v-1v-1v-1v-125v-1v-1v-1v-1q0 -9 7 -15.5t18 -6.5h189q11 0 18 6.5t7 15.5v1v1v2v125v1v1
v1q0 8 -6 14zM542 389h53v-87h-53v87zM640 389h53v-87h-53v87zM330 182q9 0 15.5 7t6.5 17v235h70v-235q0 -10 6.5 -17t15.5 -7t15.5 7t6.5 17v253v1v1v1v1q0 3 -0.5 5.5t-1.5 4.5t-3 4t-4 3.5t-4.5 2.5t-5 1.5t-5.5 0.5h-105h-3q-2 0 -3.5 -0.5t-3.5 -1.5q-5 0 -9.5 -3.5
t-7.5 -8.5t-3 -12v-253q0 -7 3 -12.5t8 -8.5t12 -3zM410 373q0 10 -6.5 17t-15.5 7t-15.5 -7t-6.5 -17v-3v-10q0 -6 -0.5 -12.5t-0.5 -16.5v-19v-20v-20q0 -100 -57 -165q-2 -2 -2 -3q-15 -17 -3 -30q5 -5 10.5 -6t12 1.5t10 4.5t8.5 5q19 14 42 64.5t23 127.5q0 9 0.5 19.5
t0.5 19.5v20v17v13v10v3zM431 147q-6 8 -15.5 10.5t-17 -3t-9 -15t4.5 -17.5l34 -43q5 -9 14.5 -11t17 3.5t9 15t-4.5 17.5zM715 212q0 6 -3.5 11t-9 8t-12.5 3h-145q-9 0 -15.5 -5t-8.5 -13q-1 -2 -1.5 -3.5t-1 -3.5t-0.5 -5v-125v-4v-3q0 -9 7 -15.5t18 -6.5l145 -1
q8 0 15 5t8 12q2 3 3 6.5t1 6.5v125q0 3 -1 5v1zM670 170h-108v20l108 -1v-19zM562 126h108v-32h-108v32zM565 373q-9 0 -16 -6.5t-7 -16t7 -16t16.5 -6.5t16 6.5t6.5 15.5q0 7 -3 12t-8.5 8t-11.5 3zM666 373q-9 0 -15.5 -6.5t-6.5 -16t6.5 -16t15.5 -6.5q7 0 12 3t8 8
t3 11q0 10 -6.5 16.5t-16.5 6.5z" />
    <glyph glyph-name="uF007F" unicode="&#xf007f;" 
d="M595 469l54 -24q1 0 3 -1h2q2 -1 4 -1q15 0 21 14q1 3 1.5 6t0 6t-1.5 5.5t-3 5t-4 4.5t-5 3l-55 23q-5 3 -11 2t-11 -4.5t-7 -8.5q-4 -9 -0.5 -18t12.5 -12zM716 235q-4 0 -7 -1t-6 -3t-5 -5t-3.5 -6.5t-1.5 -6.5v-53q0 -7 -8.5 -15t-14.5 -8h-45q-13 0 -20 7
q-6 6 -6 17v165q0 4 -1 7.5t-3 6t-5 4.5t-6.5 3.5t-6.5 1.5q-10 0 -16.5 -7t-6.5 -16v-164q-1 -17 4.5 -29.5t13.5 -20.5q21 -20 53 -20h45q16 0 31.5 9t26.5 25t11 34v53q0 9 -6.5 15.5t-16.5 6.5zM709 364q6 0 11 3t8 8t3 12q0 4 -1.5 8.5t-4.5 7.5t-7.5 4.5t-8.5 1.5
h-166q3 55 1 98q-1 9 -8 15.5t-16 5.5q-7 0 -12 -3.5t-7.5 -9t-2.5 -11.5q0 -1 0.5 -5t0.5 -13v-20q0 -11 -0.5 -26.5t-1.5 -30.5h-76q-9 0 -15.5 -6.5t-6.5 -16t6.5 -16t15.5 -6.5h72q-19 -170 -93 -233q-7 -6 -8 -15.5t5 -16.5q7 -8 17 -8q9 0 15 5q89 75 110 268h170z
M407 502q2 10 -4 17.5t-15 8.5t-16.5 -4.5t-9 -14.5t-6.5 -28t-32 -73.5t-67 -109.5q-2 -3 -3.5 -6.5t-1.5 -7t1 -6.5t3 -6t5 -5q6 -5 14 -5h3l4 2q1 0 3 0.5t3 1.5l2 2l3 3q11 15 22 31v-195q0 -10 7 -16.5t16 -6.5t16 6.5t7 16.5v271q39 75 46 124zM511 -98
q-108 0 -199.5 53.5t-145 145.5t-53.5 199q0 81 31.5 155t85 127t127 84.5t154.5 31.5q108 0 199.5 -53t145 -145t53.5 -200q0 -155 -106 -270q-103 -111 -253 -126q-20 -1 -39 -2zM511 744q-90 0 -172 -35t-141.5 -94.5t-94.5 -141.5t-35 -172.5t35 -172.5t94.5 -141.5
t141.5 -94.5t172 -35t172 35t141.5 94.5t94.5 141.5t35 172q0 73 -22 140.5t-63.5 122t-96 95.5t-122 63.5t-139.5 22.5z" />
    <glyph glyph-name="uF0091" unicode="&#xf0091;" 
d="M527 761q-61 0 -118.5 -16t-106.5 -44.5t-90 -69.5t-69.5 -90t-44.5 -106.5t-16 -117.5q0 -91 35 -173t94.5 -141.5t142 -95t173 -35.5t173 35.5t142 95t94.5 141.5t35 172.5t-35 173t-94.5 142t-142 94.5t-172.5 35zM527 -83q-109 0 -201 53.5t-145.5 145.5t-53.5 201
q0 81 31.5 155t85 127.5t127.5 85t156 31.5q108 0 200 -53.5t145.5 -145.5t53.5 -200q0 -82 -31.5 -156t-85 -127.5t-127.5 -85t-155 -31.5zM418 398h204v-42h-204v42zM418 310h204v-42h-204v42zM648 227q-37 0 -63 -26t-26 -63q0 -24 12 -44.5t32.5 -32t44.5 -11.5
q36 0 62 26t26 62q0 18 -7 34.5t-19 28.5t-28 19t-34 7zM708 163l-49 -50l-25 -24l-3 -2q-2 -2 -5 -1q-2 0 -4 1q-1 1 -3 2l-24 24l-8 8q-7 7 -0.5 13.5t13.5 -0.5l8 -8l19 -18l18 18l50 50q7 7 14 0q2 -2 2 -6t-3 -7zM370 132v392q0 10 12 14l35 -72h215l35 70
q12 -4 12 -14v-283q7 -2 13 -4.5t12 -6t11 -8.5v302q0 18 -11 30.5t-23 17t-24 4.5l-11 1l-36 -73h-171l-35 74h-12q-8 0 -17 -3t-18.5 -8.5t-15.5 -16t-6 -24.5v-427h214q-3 8 -5 17t-2 18h-172z" />
    <glyph glyph-name="uF009F" unicode="&#xf009f;" 
d="M311 -11q-24 0 -41 -16.5t-17 -40.5q0 -15 8 -28t21 -20.5t29 -7.5q24 0 41 16.5t17 40t-17 40t-41 16.5zM839 208l129 350v56l-18 18h-683l-55 129h-129v-55h92l166 -480l-111 -147h-18v-56h701v56h-609l92 129h443zM286 577h627l-111 -314h-406zM814 -11
q-16 0 -29 -7.5t-21 -20.5t-8 -29q0 -23 17 -39.5t41 -16.5t40.5 16.5t16.5 39.5q0 12 -4.5 22.5t-12 18t-18 12t-22.5 4.5z" />
    <glyph glyph-name="uF00A0" unicode="&#xf00a0;" 
d="M963 346l-396 396q-15 18 -39 18q-12 0 -21.5 -4.5t-14.5 -9.5l-4 -4l-395 -396q-2 -2 -3.5 -4t-2.5 -4.5t-1.5 -5.5t-0.5 -5.5t0.5 -5t1.5 -5t2.5 -5t3.5 -4.5q8 -8 19.5 -8t19.5 8l27 26v-404q0 -10 5 -20t12.5 -17.5t17.5 -12.5t20 -5h628q8 0 16 3t15 8.5t12.5 12
t8.5 15t3 16.5v404l26 -26q8 -8 20 -8t20 8q4 4 6 9t2 10.5t-2 10.5t-6 9zM602 -71h-148v259h148v-259zM842 -15q0 -21 -18 -38.5t-37 -17.5h-130v314h-258v-314h-129q-22 0 -39 17.5t-17 38.5v404l314 313l314 -314v-403z" />
    <glyph glyph-name="uF00A1" unicode="&#xf00a1;" 
d="M591 405q-9 0 -16.5 -10.5t-12 -28t-4.5 -38.5q0 -33 9.5 -55.5t23.5 -22.5q6 0 12.5 6t10.5 16.5t6.5 25t2.5 30.5q0 56 -22 74q-6 3 -10 3zM765 405q-9 0 -16.5 -10.5t-12 -28t-4.5 -38.5q0 -11 1.5 -21t3.5 -18.5t5 -15.5t6.5 -12t8 -8t8.5 -3q14 0 23.5 22.5t9.5 55
t-9.5 55t-23.5 22.5zM525 694q-1 0 -3.5 -0.5t-5.5 -0.5h-3l1 1q-141 42 -261 66q0 -3 1 -8t4 -21.5t5.5 -33t5.5 -39.5t5 -45q-81 -57 -127.5 -143.5t-46.5 -186.5q0 -111 57 -205.5t155 -149.5t213 -55q87 0 165.5 32.5t135.5 87.5t90.5 131t33.5 159q0 112 -56.5 206.5
t-154.5 149.5t-214 55zM525.5 -83q-103.5 0 -191.5 49t-139 133.5t-51 183.5q0 75 30 142.5t81 116.5t122 78t148.5 29t148 -29t121.5 -78t81.5 -116.5t30.5 -142.5q0 -99 -51 -183.5t-139 -133.5t-191.5 -49z" />
    <glyph glyph-name="uF00A2" unicode="&#xf00a2;" 
d="M778 259q67 85 67 192q0 129 -92.5 220.5t-223 91.5t-222.5 -91.5t-92 -220.5q0 -107 66 -192q-16 -11 -31.5 -24t-29 -27.5t-26 -30t-23.5 -32t-20.5 -34t-17 -36t-13.5 -38t-10 -39.5t-6 -41t-2 -42q0 -22 2 -44h69q-1 4 -1.5 8t-0.5 8q-1 8 -1 15v13q0 19 2 41v2l1 6
q3 19 7 37q1 2 2 5v3q5 18 12 34q0 1 0.5 2t0.5 2q6 15 16 33q1 3 2 5l2 4q9 16 19 30q1 2 4 5l2 2q9 13 19 24l2 2l2 2l1 2q3 4 6 7t6.5 6t6.5 5.5t6 5.5q2 2 3.5 3t3.5 3l2 2q15 12 27 21q1 0 1 1l2 1q32 21 66 35q-30 19 -55 48q-2 3 -9 11v1l-2 2q-8 11 -15 23q0 1 -1 2
l-1 2q-5 11 -10 21q-2 4 -2 6q-3 6 -5 12.5t-4 13.5v2l-1 1l-4 24q-1 5 -1 7q-2 16 -2 28.5t1.5 25t4 24.5t6 23.5t8.5 22.5q9 22 22 42q14 19 31 36q72 72 175 72q25 0 50 -5q12 -2 23.5 -6t22.5 -8q22 -10 42 -23t37 -30t30 -36q4 -7 8 -13.5t8 -14t7 -14.5t5.5 -14.5
t5 -15.5t3.5 -16q3 -12 4 -24.5t1 -25t-2 -28.5v-3q0 -2 -1 -4q-1 -12 -4 -24v-1l-1 -2q-3 -13 -9 -26q0 -2 -2 -5v-1q-5 -11 -10 -21l-1 -1q-1 -2 -1 -3q-7 -12 -15 -23q0 -1 -1 -1.5t-1 -1.5q-1 0 -1 -1q-5 -7 -8 -10q-25 -29 -54 -48q34 -14 65 -35q1 -1 2 -1l1 -1
q7 -5 13.5 -10t13.5 -11q4 -3 9 -8q14 -12 25 -24l3 -3q2 -2 2 -3q10 -11 20 -24l5 -7q10 -14 19 -30q2 -4 5 -9q4 -8 8 -16.5t7 -16.5q1 -1 1 -2t1 -2q6 -16 11 -34l1 -3t1 -5q2 -9 4 -18.5t3 -18.5q0 -2 1 -6v-2q3 -22 3 -41v-7q0 -3 -0.5 -7t-0.5 -7t-1 -7q0 -9 -1 -16
h68q2 22 2 44q0 105 -48 195.5t-131 148.5z" />
    <glyph glyph-name="uF00A6" unicode="&#xf00a6;" 
d="M122 611zM70 611q0 14 7 26t19 19t26 7q22 0 37 -15.5t15 -36.5q0 -11 -4 -20.5t-11 -16.5t-16.5 -11t-20.5 -4q-14 0 -26 7t-19 19t-7 26zM122 352q-21 0 -36.5 -15t-15.5 -36.5t15.5 -36.5t37 -15t36.5 15t15 36q0 6 -1.5 12t-4 11t-6 9.5t-8 8t-9.5 6t-11 4t-12 1.5z
M122 41q-14 0 -26 -6.5t-19 -18.5t-7 -26t7 -26t19 -19t26 -7q11 0 20.5 4t16.5 11t11 16.5t4 20.5q0 21 -15 36t-37 15zM252 16h698v-52h-698v52zM252 326h698v-52h-698v52zM252 637h698v-52h-698v52z" />
    <glyph glyph-name="uF00A7" unicode="&#xf00a7;" 
d="M901 661v-206h51v232q0 25 -13 38t-26 13l-12 1h-233v-52h207h3q1 0 5.5 -1.5t8 -4t6.5 -8t3 -12.5zM127 661q0 4 1 7.5t2.5 6t3 4.5t4 3t4.5 2t4 1.5t3.5 1t2.5 0.5h1h206v52h-232l-21 -3q-30 -12 -31 -49v-232h52v206zM901 -61q0 -7 -3 -12.5t-6.5 -7.5t-7.5 -3.5
t-7 -2.5h-2h-207v-51h233q1 -1 2.5 -1t7 1t10.5 2.5t11 5t10 9t7 14.5t3 20v232h-51v-206zM127 -61v206h-52v-232q0 -16 5.5 -27t13 -15.5t15 -7t12.5 -2.5l6 1h232v51h-206q-1 0 -3 0.5t-6.5 2t-8 3.5t-6 7.5t-2.5 12.5zM75 326h877v-52h-877v52z" />
    <glyph glyph-name="uF00A8" unicode="&#xf00a8;" 
d="M681 161q45 50 67 113.5t20 127.5t-28 126t-74 111q-50 50 -115.5 76t-131.5 26t-131.5 -26t-115.5 -76q-67 -67 -91 -157t0 -180t91 -157q64 -65 150 -89.5t173 -5t155 79.5l265 -266l31 31zM649 190l-28 -29q-90 -79 -211.5 -75.5t-207.5 89.5q-90 90 -90 217t90 216.5
t217 89.5t216 -90q86 -85 90 -206.5t-76 -211.5z" />
    <glyph glyph-name="uF00A9" unicode="&#xf00a9;" 
d="M228 461h566v51h-566v-51zM228 281h566v51h-566v-51zM897 692h-771q-11 0 -20.5 -4t-16.5 -11t-11 -16.5t-4 -19.5v-669q0 -21 15 -36t37 -15h771q21 0 36.5 15t15.5 36v669q0 6 -1.5 11.5t-4 10.5t-6 9.5t-8 8t-9.5 6t-11 4t-12 1.5zM897 -2q0 -11 -7.5 -18.5
t-18.5 -7.5h-720q-7 0 -13 3.5t-9 9.5t-3 13v617q0 11 7.5 18.5t17.5 7.5h720q11 0 18.5 -7.5t7.5 -18.5v-617zM228 101h566v51h-566v-51z" />
    <glyph glyph-name="uF00AA" unicode="&#xf00aa;" 
d="M509 740q-89 0 -170.5 -34.5t-140 -93.5t-93.5 -140t-35 -170.5t35 -170.5t93.5 -140t140 -93.5t170.5 -34.5t170.5 34.5t140 93.5t93.5 140t35 170q0 60 -16 117t-44 105t-68.5 88.5t-88.5 69t-105 44t-117 15.5zM757 244h-496v115h496v-115z" />
    <glyph glyph-name="uF00AB" unicode="&#xf00ab;" 
d="M510 742q-72 0 -139 -22.5t-121 -63t-95 -94.5t-63 -121t-22 -139q0 -89 35 -170.5t93.5 -140.5t140 -94t171.5 -35q71 0 138.5 22.5t121.5 63t94.5 94.5t62.5 121t22 139q0 51 -11.5 100.5t-33 93t-51.5 81.5t-68.5 68t-81.5 52t-92.5 33.5t-100.5 11.5zM510 15
l-172 219h127v355h90v-355h127z" />
    <glyph glyph-name="uF00AC" unicode="&#xf00ac;" 
d="M843 -13q0 -9 -6 -15t-15 -6h-690q-6 0 -10.5 3t-7.5 7.5t-3 10.5v487q0 9 6 15t15 6h203v40h-224q-16 0 -28 -11.5t-12 -28.5v-529q0 -16 12 -28t28 -12h732q11 0 20.5 5.5t14.5 14.5t5 20v183h-40v-162zM951 497l-187 187l-29 -29l140 -140h-154v-1q-118 -7 -217 -62
t-159.5 -145.5t-68.5 -197.5h40q13 146 128 250t277 114v1h154l-140 -140l29 -28l187 186l-3 3z" />
    <glyph glyph-name="uF00AD" unicode="&#xf00ad;" 
d="M509.5 742q-89.5 0 -171 -35t-140 -94t-93.5 -140.5t-35 -170.5t35 -170.5t93.5 -140.5t140 -94t171 -35t171 35t140.5 94t93.5 140.5t34.5 170.5t-34.5 170.5t-93.5 140.5t-140.5 94t-171 35zM555 370v-355h-90v355h-127l172 219l172 -219h-127z" />
    <glyph glyph-name="uF00AE" unicode="&#xf00ae;" 
d="M831 240q9 0 17 3.5t14 9.5t9.5 14t3.5 17q0 18 -13 31t-31 13h-277v53q1 2 1.5 3.5t1.5 3.5t1 4l311 269q13 12 13 30.5t-13 31.5q-9 8 -20 11t-22.5 0t-19.5 -11l-297 -257l-297 257q-9 8 -20 11t-22.5 0t-19.5 -11.5t-11 -19.5t0 -22.5t11 -19.5l310 -269q1 -2 1.5 -4
t1.5 -3.5t2 -3.5v-53h-277q-6 0 -12 -1.5t-10.5 -4.5t-8.5 -7t-7 -9t-4.5 -10.5t-1.5 -11.5q0 -12 5.5 -22t16 -16t22.5 -6h277v-87h-277q-12 0 -22.5 -6t-16 -16t-5.5 -22t5.5 -22t16 -16t22.5 -6h277v-161q0 -18 13 -30.5t31 -12.5t31 12.5t13 30.5v161h277q18 0 31 13
t13 31q0 12 -6 22t-16 16t-22 6h-277v87h277z" />
    <glyph glyph-name="uF00AF" unicode="&#xf00af;" 
d="M952 399h-338l-104 323l-104 -323h-338l273 -200l-104 -324l273 200l273 -200l-104 324zM727 -48l-217 159l-217 -159l83 258l-218 159h269l83 257l83 -257h269l-218 -159z" />
    <glyph glyph-name="uF00B0" unicode="&#xf00b0;" 
d="M901 688h-776q-22 0 -37 -15.5t-15 -36.5v-672q0 -22 15 -37t37 -15h776q7 0 13.5 2t12 5t10.5 8t8.5 10.5t5 12.5t1.5 14v672q0 10 -4 20t-11 16.5t-16.5 11t-19.5 4.5zM901 -11q0 -10 -8 -17.5t-18 -7.5h-724q-11 0 -18.5 7.5t-7.5 17.5v102l181 187q28 28 52 0
l103 -103l207 206q12 14 25 14t20 -7l7 -7l181 -181v-211zM901 267l-161 164q-9 9 -17.5 15t-16 8t-14 2.5t-12 -1.5t-10.5 -4.5t-8 -6.5l-6 -6l-5 -4l-1 -2l-189 -191l-88 94q-11 14 -24 19t-23 1.5t-19 -9.5t-13 -11l-5 -6l-164 -168v449q0 11 7.5 18.5t18.5 7.5h724
q10 0 18 -7.5t8 -18.5v-343zM254.5 533q-21.5 0 -37 -15.5t-15.5 -36.5q0 -14 7 -26t19 -19t26 -7q22 0 37 15t15 36.5t-15 37t-36.5 15.5z" />
    <glyph glyph-name="uF00B1" unicode="&#xf00b1;" 
d="M310 345zM259 345q0 14 7 25.5t18.5 18t25.5 6.5q20 0 35 -14.5t15 -35.5t-15 -36t-35.5 -15t-35.5 15t-15 36zM512 395q-14 0 -25.5 -6.5t-18.5 -18t-7 -25.5t7 -25.5t18.5 -18.5t25 -7t25.5 7t18.5 18.5t6.5 25.5q0 33 -30 46q-10 4 -20 4zM891 673h-758
q-21 0 -36 -14.5t-15 -35.5v-556q0 -14 7 -25.5t18.5 -18.5t25.5 -7h263l102 -152h27l102 152h264q10 0 19.5 4t16 11t10.5 16.5t4 19.5v556q0 21 -14.5 35.5t-35.5 14.5zM891 92q0 -7 -3.5 -12.5t-9.5 -9t-12 -3.5h-205l1 1h-59l-2 -1l-31 -51l-59 -96l-58 96l-31 51l-60 1
v-1h-204q-5 0 -10 2t-8 5.5t-5 8t-2 9.5v506q0 10 7 17.5t18 7.5h708q10 0 17.5 -7.5t7.5 -17.5v-506zM714 395q-21 0 -36 -14.5t-15 -35.5q0 -14 7 -25.5t18.5 -18.5t25.5 -7q10 0 19.5 4t16 11t10.5 16.5t4 19.5t-4 19.5t-10.5 16t-16 10.5t-19.5 4z" />
    <glyph glyph-name="uF00B2" unicode="&#xf00b2;" 
d="M591 405q-9 0 -16.5 -10.5t-12 -28t-4.5 -38.5q0 -33 9.5 -55.5t23.5 -22.5q6 0 12.5 6t10.5 16.5t6.5 25t2.5 30.5q0 56 -22 74q-6 3 -10 3zM765 405q-9 0 -16.5 -10.5t-12 -28t-4.5 -38.5q0 -11 1.5 -21t3.5 -18.5t5 -15.5t6.5 -12t8 -8t8.5 -3q14 0 23.5 22.5t9.5 55
t-9.5 55t-23.5 22.5zM525 694q-1 0 -3.5 -0.5t-5.5 -0.5h-3l1 1q-141 42 -261 66q0 -3 1 -8t4 -21.5t5.5 -33t5.5 -39.5t5 -45q-81 -57 -127.5 -143.5t-46.5 -186.5q0 -111 57 -205.5t155 -149.5t213 -55q87 0 165.5 32.5t135.5 87.5t90.5 131t33.5 159q0 112 -56.5 206.5
t-154.5 149.5t-214 55zM525.5 -83q-103.5 0 -191.5 49t-139 133.5t-51 183.5q0 75 30 142.5t81 116.5t122 78t148.5 29t148 -29t121.5 -78t81.5 -116.5t30.5 -142.5q0 -99 -51 -183.5t-139 -133.5t-191.5 -49z" />
    <glyph glyph-name="uF00B3" unicode="&#xf00b3;" 
d="M747 516h-36h-4h-95h-43h-118h-42h-100h-36q-3 0 -7 -0.5t-10.5 -6.5t-6.5 -18v-166q0 -29 20 -52v-178q0 -17 12 -28.5t28 -11.5h402q17 0 28.5 11.5t11.5 28.5v178q20 23 20 52v160v3v3q0 7 -2.5 12.5t-6 7.5t-7 3.5t-5.5 1.5h-3zM450 476h120v-130q0 -10 -3 -19.5
t-8.5 -16.5t-13 -13t-16.5 -9t-19 -3q-25 0 -42.5 18t-17.5 43v130zM289 346v130h61h60v-130q0 -25 -17.5 -43t-42.5 -18q-17 0 -30.5 8t-22 22t-8.5 31zM711 135q0 -5 -1 -9.5t-3 -8.5t-5 -7.5t-6.5 -6t-7.5 -4.5t-8.5 -3t-8.5 -1h-321q-11 0 -20.5 5t-15 14.5t-5.5 20.5
v113q6 -1 11 -2t10 -1h40q36 0 60 28q24 -28 60 -28h40q36 0 60 28q25 -28 61 -28h40q9 0 20 3v-113zM731 346q0 -17 -8 -31t-22 -22t-30 -8q-25 0 -42.5 18t-17.5 43v130h60h60v-130zM510 744q-51 0 -101 -12t-93.5 -33.5t-81.5 -51.5t-68.5 -68.5t-52 -82t-33 -93
t-11.5 -101.5q0 -90 35 -171.5t94 -141t140.5 -94t171.5 -34.5t172 34.5t141 94t94 141t35 171.5q0 45 -9 89t-26 83t-41 75t-53.5 65.5t-65.5 53.5t-75 41t-83 26t-89 9zM510.5 -101q-109.5 0 -202.5 54t-147 147t-54 202q0 82 32 156.5t86 128.5t128.5 86t156.5 32
t157 -32t128.5 -86t85.5 -128.5t32 -156.5q0 -109 -54 -202t-146.5 -147t-202 -54z" />
    <glyph glyph-name="uF00B4" unicode="&#xf00b4;" 
d="M531 321v274h-44v-274h-272v-42h272v-273h44v273h274v42h-274zM510 743q-90 0 -171.5 -35t-140.5 -94t-94 -140.5t-35 -171.5t35 -171.5t94 -140.5t140.5 -94t171.5 -35t171.5 35t140.5 94t94 140.5t35 171.5t-35 171.5t-94 140.5t-140.5 94t-171.5 35zM510 -100
q-108 0 -200 53t-145.5 145t-53.5 201q0 81 31.5 155t85 127.5t127.5 85t155 31.5q109 0 201 -53.5t145.5 -145.5t53.5 -200q0 -54 -14.5 -106t-40 -96t-62.5 -80.5t-81 -62.5t-95.5 -40t-106.5 -14z" />
    <glyph glyph-name="uF00B5" unicode="&#xf00b5;" 
d="M749 519q-2 45 -21 86.5t-50 71.5t-73.5 47.5t-88.5 17.5q-62 0 -116 -29.5t-87 -81t-35 -112.5h-136v-661h738v661h-131zM516 703q78 0 134 -53.5t60 -130.5h-393q4 76 62.5 130t136.5 54zM841 -103h-661v583h98v-93q-20 -11 -20 -34q0 -6 2 -12t5.5 -10.5t8.5 -8
t11 -5.5t12 -2q16 0 27.5 11t11.5 27q0 23 -20 34v93h394v-93q-19 -11 -19 -34q0 -16 11.5 -27t27.5 -11t27.5 11t11.5 27q0 23 -20 34v93h92v-583z" />
    <glyph glyph-name="uF00B6" unicode="&#xf00b6;" 
d="M783 740h-544q-7 0 -13.5 -2t-11.5 -6t-9 -9t-6 -11.5t-2 -13.5v-795q0 -17 12 -29.5t30 -12.5h544q11 0 20.5 5.5t15.5 15.5t6 21v795q0 9 -3.5 16.5t-9 13t-13.5 9t-16 3.5zM783 -76q0 -6 -3 -10.5t-8 -7.5t-10 -3h-502q-9 0 -15 6t-6 15v146h544v-146zM783 112h-544
v565q0 6 2.5 10.5t7.5 7.5t11 3h502q3 0 6.5 -1t6 -3t4.5 -4.5t3 -5.5t1 -7v-565zM511 -13zM469 -13.5q0 17.5 12 30t29.5 12.5t30 -12.5t12.5 -29.5q0 -7 -2.5 -13.5t-6 -11.5t-9 -9t-11.5 -6t-13 -2q-18 0 -30 12t-12 29.5z" />
    <glyph glyph-name="uF00B7" unicode="&#xf00b7;" 
d="M448 155l-191 191l-35 -35l226 -226l35 35l296 296l-35 34zM513 743q-52 0 -101.5 -11.5t-93 -33.5t-81.5 -52t-68.5 -68.5t-52 -81.5t-33 -92.5t-11.5 -101.5q0 -90 35 -171.5t94 -140.5t140.5 -94t171 -35t171.5 35t141 94t94 140.5t35 171.5q0 45 -9 89t-26 83
t-41 74.5t-53.5 65.5t-65 54t-75 40.5t-83 25.5t-88.5 9zM514 -99q-109 0 -201 53.5t-145.5 146t-53.5 200.5q0 81 31.5 155.5t85 128t127.5 85t156 31.5q108 0 200 -53.5t145.5 -145.5t53.5 -201q0 -33 -5 -65t-15 -61.5t-24.5 -57t-32.5 -52t-40 -46.5t-46.5 -40
t-52.5 -32.5t-57.5 -24.5t-61.5 -15.5t-64 -5.5z" />
    <glyph glyph-name="uF00B8" unicode="&#xf00b8;" 
d="M699 733h-321q-43 0 -75 -30t-32 -71v-7l-31 -1q-42 0 -72.5 -32.5t-30.5 -74.5v-541q0 -28 15 -53t39.5 -40.5t52.5 -15.5h401q28 0 53 13.5t39.5 37t14.5 51.5v7h27q42 0 74.5 33t32.5 75v392v40zM699 678l134 -162h-81q-10 0 -20 9t-17 21.5t-11.5 26.5t-4.5 24v81z
M699 -29q0 -22 -16.5 -42.5t-37.5 -20.5h-401q-21 0 -43.5 23.5t-22.5 44.5v541q0 21 21.5 43.5t41.5 22.5l30 1v-500q0 -42 32.5 -75t74.5 -33h321v-5zM846 84q0 -14 -11 -29.5t-26.5 -26.5t-29.5 -11h-414q-20 0 -37 22.5t-17 44.5v541q0 22 17 44.5t37 22.5h293v-122
q0 -12 2.5 -23t6.5 -20t10 -17t14 -14.5t17.5 -11t20.5 -6.5t23 -2h94v-392zM699 354h-241q-11 0 -19 -8t-8 -19t8 -19t19 -8h241q11 0 19 8t8 19q0 20 -19 26q-5 1 -8 1zM699 219h-241q-11 0 -19 -8t-8 -19t8 -19t19 -8h241q7 0 13 3.5t10 9.5t4 14q0 20 -19 26q-5 1 -8 1z
" />
    <glyph glyph-name="uF00B9" unicode="&#xf00b9;" 
d="M69 395l2 4q3 11 8.5 18t13 10t19.5 3h198h67q6 0 9 2.5t5 7.5q27 84 83 254q1 3 2 5t2 4.5t2.5 4.5t3 3.5t3.5 3t4 2.5l4 2q2 1 5 1l4 2h5q9 0 16.5 -3t13 -9t8.5 -15q7 -21 15.5 -47t14 -43t16 -49t14.5 -44q1 -6 5 -17.5t6.5 -18.5t5.5 -17t6 -18q1 -6 4.5 -8.5
t9.5 -2.5h234h8h10h8h9q4 0 8 -1t7.5 -2.5t6.5 -3.5t5.5 -4.5t4.5 -6t3 -7.5q4 -12 0.5 -23.5t-13.5 -19.5q-6 -5 -45 -33q-10 -7 -42 -30.5t-47 -34.5t-40 -29t-46 -32q-6 -5 -3 -14q18 -56 60 -184l5 -17q3 -11 5.5 -18t6 -17t5.5 -17q5 -16 0.5 -27.5t-13.5 -17.5
q-4 -4 -10.5 -6t-12.5 -1.5t-12.5 2.5t-11.5 6q-157 114 -215 156q-9 6 -17 0q-29 -21 -102 -74t-113 -82q-15 -13 -37.5 -6t-24.5 32q-1 3 -0.5 6.5t1.5 7t2 6.5q43 135 81 251q1 2 1 4t-0.5 4t-1.5 3.5t-4 3.5q-30 21 -102.5 73.5t-111.5 81.5q-2 1 -4.5 3t-4 4t-3 4.5
t-3 4.5t-2.5 5t-2 5t-2 5v5zM511 622h-1h-1q-3 -7 -3 -8q-3 -7 -6 -15l-4 -16l-6 -16t-5 -16q-6 -17 -15 -44.5t-16.5 -51t-14.5 -44.5q-5 -14 -14.5 -22t-23.5 -11h-23q-20 1 -32 1t-29.5 1t-33.5 1.5t-31 0.5q-9 0 -31 1t-34 2h-49q1 -1 3.5 -2.5t3.5 -2.5l2 -2
q190 -127 202 -136q14 -9 18 -20.5t-1 -26.5q-1 -1 -73 -234q0 -1 -0.5 -3t-1 -4.5t-1.5 -4.5l4 2l4 3q3 2 6.5 5t6.5 5.5t6.5 5.5t6.5 5q132 111 155 130q15 12 31.5 11.5t31.5 -12.5q63 -53 163 -137q1 0 22 -17q1 4 0 9q-5 14 -22 68.5t-28 89t-22 68.5q-4 13 -3 24
q1 22 26 39q45 30 197 132l5 4h-60q-34 -1 -128 -4q-47 -2 -55 -2q-44 -4 -57 36q-4 12 -28.5 86t-37.5 113z" />
    <glyph glyph-name="uF00BA" unicode="&#xf00ba;" 
d="M791 127h34q50 0 50 43q-1 20 -13 30t-35 11h-57v-135h21v51zM791 195h32q29 -1 30 -25q0 -26 -30 -27h-32v52zM715 211h20v-135h-20v135zM169 192h80v-80h-80v80zM904 626h-783q-19 0 -32.5 -13.5t-13.5 -32.5v-552q0 -13 6.5 -23.5t17 -16.5t22.5 -6h783q12 0 23 6
t17 16.5t6 23.5v552q0 19 -13.5 32.5t-32.5 13.5zM900 29h-778v362h778v-362zM900 431h-778v41h778v-41zM900 512h-778v63h778v-63zM640 76l54 135h-23q-41 -114 -42 -117h-1q-1 2 -43 117h-22l54 -135h23z" />
    <glyph glyph-name="uF00BB" unicode="&#xf00bb;" 
d="M231 384h65q2 0 4.5 1t4.5 2.5t3 4t1 5.5v65q0 5 -4 9t-9 4h-65q-4 0 -7 -2t-4.5 -5t-1.5 -6v-65q0 -3 1 -5.5t2.5 -4t4 -2.5t5.5 -1zM409 189h307q17 0 31 1t22.5 2.5t8.5 3.5v37q0 8 -62 8h-307q-61 0 -61 -8v-37q0 -7 61 -7zM409 332h307q26 0 44 2t18 5v37q0 8 -62 8
h-307q-61 0 -61 -8v-37q0 -3 18 -5t43 -2zM902 616h-780q-12 0 -22.5 -6t-16.5 -16.5t-6 -22.5v-551q0 -19 13 -32t32 -13h780q19 0 32 13t13 32v551q0 19 -13 32t-32 13zM898 22h-775v544h775v-544zM231 228h65q5 0 9 3.5t4 9.5v65q0 5 -4 9t-9 4h-65q-6 0 -9.5 -4t-3.5 -9
v-65q0 -6 3.5 -9.5t9.5 -3.5zM231 85h65q11 1 13 13v65q0 3 -2 6t-5 5t-6 2h-65q-6 0 -9.5 -4t-3.5 -9v-65q0 -6 3.5 -9.5t9.5 -3.5z" />
    <glyph glyph-name="uF00BC" unicode="&#xf00bc;" 
d="M920 592h-6h-807h-7h-21h-8v-580h879v580h-30zM879 556l-339 -350q-5 -5 -11 -8t-12 -3.5t-12.5 0t-12.5 3.5t-10 8l-340 350h737zM106 541l229 -235l-229 -235v470zM134 49l226 232l97 -101q7 -7 15.5 -12t18.5 -8t20 -3q15 0 29 6t25 17l97 101l225 -232h-753zM915 71
l-228 235l228 235v-470z" />
    <glyph glyph-name="uF00BD" unicode="&#xf00bd;" 
d="M898 741h-777q-10 0 -19.5 -4t-16.5 -10.5t-11 -15.5t-4 -19v-783q0 -4 0.5 -8.5t2 -8.5t4 -7.5t5.5 -6.5l6 -6q3 -3 7 -5t8.5 -3.5t9 -2t8.5 -0.5h777q22 0 37 14t15 34v783q0 8 -2.5 15.5t-7.5 13.5t-11.5 10.5t-14 7t-16.5 2.5zM898 -67q0 -10 -7.5 -17t-18.5 -7h-725
q-7 0 -13 3.5t-9.5 9t-3.5 11.5v183l160 153q6 6 12 9.5t11 4t9.5 -0.5t8 -3.5t6 -4.5t3.5 -3l1 -2l126 -75l229 172q8 8 16 11t14 1.5t11.5 -4t7.5 -5.5l3 -3l159 -147v-286zM898 281l-139 131q-15 15 -30 21t-25 3t-18.5 -7.5t-12.5 -9.5l-4 -5l-211 -157l-110 65
q-8 10 -17.5 15.5t-17.5 5.5t-15.5 -2t-13.5 -6.5t-10.5 -8t-7.5 -6.5l-2 -3l-143 -135v486q0 10 8 17t18 7h725q11 0 18.5 -7t7.5 -17v-321v-66zM295 552q-14 0 -26 -6.5t-19 -18t-7 -24.5q0 -20 15 -34t36.5 -14t37 14t15.5 34q0 31 -30 44q-11 4 -22 5zM295 508z" />
    <glyph glyph-name="uF00BE" unicode="&#xf00be;" 
d="M742 329q0 -48 -18.5 -91.5t-50 -75t-75 -50.5t-91.5 -19q-97 0 -166 69t-69 167h-52q0 -112 75.5 -194.5t185.5 -92.5v-184h52v184q54 5 102.5 29.5t83.5 62.5t55 88.5t20 106.5h-52zM507 146q76 0 129.5 53.5t53.5 129.5v235q0 18 -4 36.5t-10.5 34.5t-16.5 31
t-22.5 27t-27 22t-31 17t-34.5 10.5t-37 3.5q-76 0 -129.5 -53.5t-53.5 -128.5v-235q0 -76 53.5 -129.5t129.5 -53.5z" />
    <glyph glyph-name="uF00BF" unicode="&#xf00bf;" 
d="M446 740h-327q-12 0 -22 -6t-15.5 -16t-5.5 -22v-327q0 -18 12.5 -30.5t30.5 -12.5h327q18 0 31 12.5t13 30.5v327q0 12 -6 22t-16 16t-22 6zM446 391q0 -9 -6.5 -15.5t-15.5 -6.5h-283q-9 0 -15.5 6.5t-6.5 15.5v283q0 10 6.5 16t15.5 6h283q9 0 15.5 -6t6.5 -16v-283z
M904 740h-327q-9 0 -17 -3.5t-14 -9.5t-9.5 -14t-3.5 -17v-327q0 -18 13 -30.5t31 -12.5h327q18 0 30.5 12.5t12.5 30.5v327q0 18 -12.5 31t-30.5 13zM904 391q0 -9 -6.5 -15.5t-15.5 -6.5h-283q-6 0 -11 3t-8 8t-3 11v283q0 5 1.5 9t4.5 7t7 4.5t9 1.5h283q6 0 11 -3t8 -8
t3 -11v-283zM446 282h-327q-12 0 -22 -5.5t-15.5 -15.5t-5.5 -22v-327q0 -9 3.5 -17t9 -14t13.5 -9.5t17 -3.5h327q18 0 31 13t13 31v327q0 18 -13 30.5t-31 12.5zM446 -66q0 -9 -6.5 -15.5t-15.5 -6.5h-283q-9 0 -15.5 6.5t-6.5 15.5v283q0 9 6.5 15.5t15.5 6.5h283
q9 0 15.5 -6.5t6.5 -15.5v-283zM904 282h-327q-18 0 -31 -12.5t-13 -30.5v-327q0 -18 13 -31t31 -13h327q18 0 30.5 13t12.5 31v327q0 18 -12.5 30.5t-30.5 12.5zM904 -66q0 -9 -6.5 -15.5t-15.5 -6.5h-283h-5l-4 2q-2 0 -4 2l-2 2l-4 4q-1 1 -2 3v4q-1 2 -1 5v283
q0 9 6.5 15.5t15.5 6.5h283q9 0 15.5 -6.5t6.5 -15.5v-283z" />
    <glyph glyph-name="uF00C0" unicode="&#xf00c0;" 
d="M880 520h-124l-106 133v1h-1q-20 22 -49 22h-176q-30 0 -51 -25l-105 -131h-127q-29 0 -49.5 -23t-20.5 -56v-439q0 -33 20.5 -55.5t49.5 -22.5h739q29 0 49.5 22.5t20.5 55.5v439q0 33 -20.5 56t-49.5 23zM511 54q-86 0 -146.5 60.5t-60.5 146.5q0 56 27.5 104t75 75.5
t104.5 27.5q85 0 146 -60.5t61 -146.5q0 -56 -28 -103.5t-75.5 -75.5t-103.5 -28z" />
    <glyph glyph-name="uF00C1" unicode="&#xf00c1;" 
d="M515 585q17 0 32 6t25.5 17t17 26t6.5 31q0 34 -23.5 57.5t-57 23.5t-57 -23.5t-23.5 -57t23.5 -57t56.5 -23.5zM515 383q-33 0 -56.5 -23.5t-23.5 -57t23.5 -57.5t56.5 -24q22 0 40.5 11t29.5 29.5t11 40.5q0 9 -2 18.5t-6 17.5t-9.5 15t-12.5 12.5t-15 9.5t-17 6t-19 2
zM515 19q-16 0 -31 -6t-26 -17t-17 -26t-6 -31q0 -34 23.5 -57.5t56.5 -23.5q17 0 32 6.5t25.5 17t17 25.5t6.5 32q0 46 -40 69q-19 11 -41 11z" />
    <glyph glyph-name="uF00C2" unicode="&#xf00c2;" 
d="M908 5l-158 290q48 72 48 159q0 119 -84 203t-202 84t-202 -84t-84 -203q0 -83 45 -154l-161 -295q-7 -13 1.5 -24t22.5 -7l130 34l49 -133q1 -3 2.5 -5.5t4 -4.5t5.5 -3t6 -1h2q12 0 18 11l158 290l158 -290q6 -11 18 -11h2q14 1 18 14l48 133l131 -34q14 -4 22.5 7.5
t1.5 23.5zM336 -67l-38 108q-3 8 -10.5 11.5t-15.5 1.5l-101 -26l127 235q33 -37 75.5 -61t91.5 -32zM269 454q0 101 71 173t172 72t172 -72t71 -173q0 -67 -32.5 -123.5t-88.5 -89t-122 -32.5q-33 0 -64.5 8.5t-58 24.5t-49 38.5t-38.5 49.5t-24.5 58.5t-8.5 65.5zM746 54
q-3 1 -5.5 1t-5 -0.5t-5 -2t-4.5 -3t-3.5 -3.5t-2.5 -5l-39 -108l-128 236q100 15 169 90l125 -231zM421 384q-2 2 -47 124h-23l57 -143h24l58 143h-25q-43 -121 -44 -124zM508 365h22v143h-22v-143zM623 508h-61v-143h22v54h37q52 0 53 46q-3 41 -51 43zM618 436h-34v55h34
q31 -1 33 -27q-1 -27 -33 -28z" />
    <glyph glyph-name="uF00C3" unicode="&#xf00c3;" 
d="M330 173h-48v-46q0 -9 4 -13.5t13 -4.5h48v48q0 8 -4 12t-13 4zM337 152v-6h-18v18h7q11 0 11 -12zM310 164v-18h-19v12v6h19zM291 130v7h19v-19h-6q-5 0 -7.5 1t-4 3.5t-1.5 7.5zM337 118h-18v19h18v-18v-1zM248 211v-10q15 0 17 -13v-1l-17 -10v-11q0 1 1 1.5t3.5 2
t4.5 2.5t4.5 2.5t3.5 2.5v-17v-2v2l-17 -11v-10q1 1 3.5 2.5t7 4t6.5 4.5v-1v-6q0 -10 -4 -16t-9 -7l-4 -1v-10q27 1 27 35v41q-1 26 -27 26zM337 200v11h-10v-11h-26v11h-9v-11h-10v-10h10v-9h9v9h26v-9h10v9h10v10h-10zM233 175h-44v26h40v10h-87v-10h37v-26h-41v-10h40
q-1 -5 -3.5 -12t-12.5 -18t-24 -16v-10q14 3 26.5 14.5t19.5 26.5q8 -16 21.5 -27t27.5 -14v10q-34 12 -43 46h43v10zM371 173v-10h26v-54h11v54h26v10h-63zM532 135l9 22q2 1 5 4l4 -4l6 -14q-15 -1 -24 -8zM581 109l-22 54q0 1 -1 2.5t-4.5 4.5t-7.5 3q-3 0 -5.5 -1
t-4 -2.5t-2.5 -3t-1 -2.5l-1 -1l-21 -54h11q11 24 38 24l9 -24h12zM608 120q-11 0 -11 11v42h-11v-10v-37q0 -7 4.5 -12t12.5 -5h13v11h-8zM645 120q-6 0 -8.5 2t-2.5 9v42h-11v-10v-37q0 -7 4.5 -12t12.5 -5h13v11h-8zM473 153q5 0 10.5 1.5t8.5 2.5v-48h11v33v24
q0 2 -0.5 4t-3.5 3t-7 -2q-9 -7 -19 -7h-1v0q-6 0 -10.5 2t-8.5 5t-8 2q-4 -2 -4 -7v-22v-35h11v48q8 -4 20 -4h1zM675 115q-2 -5 -5 -6q-6 0 -6 6q0 2 1.5 3.5t4.5 1.5q5 0 5 -5zM782 125q-1 -2 -2.5 -3t-3 -1.5t-3.5 -1t-4 -0.5q-8 0 -14 6q-5 5 -5 16v4q0 2 0.5 4t1 3.5
t1.5 3t2 2.5q6 5 14 5t13.5 -5.5t5.5 -15.5q0 -4 -0.5 -7.5t-2 -5.5t-3.5 -4zM795 124q1 3 2 7.5t1 10.5q0 7 -2 13t-6 10q-8 8 -21 8q-3 0 -5 -1h-6q-2 -1 -4.5 -2.5t-4.5 -3.5q-3 -2 -5 -6t-3.5 -8.5t-1.5 -10.5q0 -15 8.5 -23.5t21.5 -8.5q8 0 15 4t11 11zM837 153
q5 0 10.5 1.5t8.5 2.5v-48h11v13v12v10v10v8v4q-1 5 -4 7q-2 1 -4 0t-3 -2q-9 -7 -19 -7h-1v0q-10 0 -19 7q-4 3 -8 2q-4 -2 -4 -7v-22v-35h11v48q8 -4 20 -4h1zM722 126l-1 -1q-3 -3 -6.5 -4.5t-7.5 -1.5t-7.5 1.5t-6 4t-4 7t-1.5 9.5q0 4 0.5 7t2 5.5t3.5 4.5q5 5 13 5
t14 -5q0 -1 1 -2h12q-1 3 -2.5 5t-3.5 4q-4 4 -9 6t-12 2q-3 0 -5 -1h-6q-2 -1 -4 -2.5t-5 -3.5t-5 -6t-3 -8.5t-1 -10.5q0 -15 8 -23.5t21 -8.5q8 0 15 4t11 11q1 1 1 2h-12zM137 254h80q-16 22 -16 49q0 22 10.5 40.5t28.5 30t39 12.5q-10 -5 -16 -28.5t-6 -54.5
q0 -9 0.5 -17.5t1.5 -16.5t3 -15h43q5 22 5 49q0 31 -6.5 54.5t-15.5 28.5q33 -2 55.5 -26t22.5 -57v-7q0 -3 -1 -6t-1.5 -6.5t-1.5 -6.5l-2 -6l-4 -6q-1 -3 -2.5 -5.5t-3.5 -5.5h322q-17 22 -17 49q0 33 23 57t56 26q-10 -5 -16.5 -28.5t-6.5 -54.5v-5v-6q0 -2 0.5 -5
t0.5 -5.5t0.5 -5t0.5 -4.5t0.5 -4.5t1 -4.5t1 -4.5t0.5 -4.5h44q5 22 5 49q0 31 -6.5 54.5t-16.5 28.5q33 -2 56 -26t23 -57q0 -5 -1 -10.5t-2.5 -10.5t-3.5 -10t-4.5 -9.5t-5.5 -8.5h80v104v21v16v11v6v2v1v2q-1 78 -32 96q-30 18 -64 -21l-9 -9q-12 -15 -19 -22.5t-20 -20
t-23.5 -19.5t-25 -14.5t-30.5 -11t-33 -3.5h-18h-99h-99h-19q-25 0 -47 7t-42 23t-31.5 27.5t-30.5 33.5q-6 6 -8 9q-34 39 -64 21q-31 -18 -33 -96v-2v-1v-2v-6v-11v-16v-21v-104zM496 321h30q7 0 9.5 -3.5t-1.5 -7.5l-8 -12q-6 -8 -10 -14q-2 -2 -5 -2l-5 2q-4 6 -10 14
l-9 12q-3 4 -0.5 7.5t9.5 3.5z" />
    <glyph glyph-name="uF00C4" unicode="&#xf00c4;" 
d="M141 598q-58 -10 -97 -56.5t-39 -107.5v-4v-2v-452h71v338h208v72h-208v24v24q0 37 25 64.5t62 30.5h121v69h-143v0zM580 143v-4v-4v-4q0 -35 -24.5 -59.5t-59 -24.5t-59 24.5t-24.5 59.5v4v8v458h-72v-458h1q0 -3 -0.5 -6t-0.5 -6q0 -64 45.5 -110t109.5 -46t109.5 46
t45.5 110v4v8v458h-71v-458zM1018 459q0 43 -21 78.5t-56.5 56.5t-77.5 21t-78 -21t-56.5 -56.5t-20.5 -78.5v-3v-5v-4v-458h71v458v4v5v3q0 35 24.5 59.5t59 24.5t59 -24.5t24.5 -59.5v-3v-5v-4v-458h72v458h-1q1 7 1 12z" />
    <glyph glyph-name="uF00CB" unicode="&#xf00cb;" 
d="M399 711h-215q-33 0 -57 -23.5t-24 -56.5v-203q0 -3 1 -7q4 -19 15 -34t28.5 -24t36.5 -9h215q19 1 35 10t26.5 24t13.5 33q1 4 1 7v203q0 21 -10 39t-27.5 29t-38.5 12zM432 439q0 -18 -12.5 -30.5t-30.5 -12.5h-193h-7q-18 0 -30.5 12.5t-12.5 30.5v187q0 12 5.5 21.5
t15.5 15.5t22 6h200q18 0 30.5 -12.5t12.5 -30.5v-187zM920 631q0 32 -22 55t-54 25h-192q-16 0 -31.5 -6t-26 -17t-17 -26t-6.5 -31v-203q0 -3 1 -7q5 -29 27.5 -48t52.5 -19h192q28 2 49 21t26 46q1 4 1 7v203zM877 439q0 -9 -3.5 -16.5t-9 -13.5t-13.5 -9.5t-17 -3.5
h-178q-17 0 -30 12.5t-13 30.5v187q0 6 2 11.5t4.5 10t6.5 8.5t8.5 7t10 4.5t11.5 1.5h178q18 0 30.5 -12.5t12.5 -30.5v-187zM399 252h-215q-33 0 -57 -23.5t-24 -57.5v-202q0 -4 1 -7q3 -14 10 -26.5t17.5 -21.5t24.5 -14.5t28 -5.5h215v1q28 1 49 20t26 47q0 2 0.5 3.5
t0.5 3.5v202q0 16 -6 30.5t-16 25t-24 17.5t-30 8zM432 -20q0 -18 -12.5 -30.5t-30.5 -12.5h-193v0h-7q-12 0 -22 5.5t-15.5 15.5t-5.5 22v187q0 17 12.5 29.5t30.5 12.5h200q12 0 22 -5.5t15.5 -15.5t5.5 -21v-187zM844 252h-192q-34 0 -57.5 -23.5t-23.5 -57.5v-202
q0 -4 1 -7q3 -19 14.5 -34.5t28.5 -24.5t37 -9h163q9 1 15 7t6 14.5t-6 15t-15 6.5h-152v0h-7q-11 0 -21 5.5t-15.5 15.5t-5.5 22v187q0 7 2 13.5t6 11.5t9 9t11.5 6t13.5 2h178q18 0 30.5 -12.5t12.5 -29.5v-146q0 -9 6.5 -15t15 -6t15 6t6.5 15v150q0 11 -3 21t-7.5 18.5
t-11.5 16t-15.5 12.5t-18.5 8.5t-20 4.5z" />
    <glyph glyph-name="uF00D4" unicode="&#xf00d4;" 
d="M440 469q0 9 -2.5 18.5t-7 17t-11 14t-14.5 11.5t-17 7.5t-19 2.5q-29 0 -50 -21t-21 -50.5t21 -50t50.5 -20.5t50 20.5t20.5 50.5zM345 492h48v-47h-48v47zM234 49.5q7 -7.5 17.5 -7.5t17.5 8l129 172l143 -101q3 -4 8 -5.5t10 -1.5q11 0 18 7l211 235q7 7 7 17t-7 18
q-5 4 -11 6t-12.5 0t-11.5 -6l-198 -221l-143 102q-8 8 -19 7q-4 0 -7 -0.5t-6.5 -2t-5.5 -4.5l-140 -187q-7 -8 -7 -18t7 -17.5zM915.5 212q9.5 0 16 6.5t6.5 16.5v409q0 14 -4.5 27t-12.5 23.5t-18 18.5t-23.5 12t-26.5 4h-683q-35 0 -60 -25t-25 -60v-683q0 -35 25 -60
t60 -25h683q35 0 60 25t25 60v72q0 6 -3 11t-8 8t-12 3q-9 0 -15.5 -6.5t-6.5 -15.5v-1v0v-66q0 -19 -13 -32t-32 -13h-429h-244q-13 0 -23 6t-16 16.5t-6 22.5v673q0 13 6 23t16 16t23 6h673q12 0 22.5 -6t16.5 -16t6 -23v-404q0 -10 6.5 -16.5t16 -6.5z" />
    <glyph glyph-name="uF00D6" unicode="&#xf00d6;" 
d="M185 -1h-76q-10 0 -17.5 -7t-7.5 -17.5t7.5 -18t17.5 -7.5h76q5 0 9.5 2t8 5.5t5.5 8t2 9.5q0 11 -7.5 18t-17.5 7zM915 -1h-554q-5 0 -10 -2t-8 -5t-5 -8t-2 -10q0 -10 7 -17.5t18 -7.5h554q10 0 17.5 7.5t7.5 18t-7.5 17.5t-17.5 7zM185 327h-76q-10 0 -17.5 -7.5
t-7.5 -18t7.5 -18t17.5 -7.5h76q5 0 9.5 2t8 5.5t5.5 8t2 10.5q0 10 -7.5 17.5t-17.5 7.5zM915 327h-554q-11 0 -18 -7.5t-7 -18t7 -18t18 -7.5h554q10 0 17.5 7.5t7.5 18.5q0 5 -2 9.5t-5.5 8t-8 5.5t-9.5 2zM185 654h-76q-10 0 -17.5 -7.5t-7.5 -18t7.5 -17.5t17.5 -7h76
q10 0 17.5 7t7.5 18q0 7 -3.5 12.5t-9.5 9t-12 3.5zM361 604h554q7 0 12.5 3t9 9t3.5 13t-3.5 12.5t-9 9t-12.5 3.5h-554q-11 0 -18 -7.5t-7 -17.5q0 -20 19 -24q3 -1 6 -1z" />
    <glyph glyph-name="uF00D7" unicode="&#xf00d7;" 
d="M301 114q-10 0 -16.5 -6.5t-6.5 -16t6.5 -16t16.5 -6.5h339q10 0 16.5 6.5t6.5 15.5q0 7 -3 12t-8 8t-12 3h-339zM898 217q3 0 5.5 0.5t5 2t4.5 3.5t3.5 4.5t2 5t0.5 5.5v394q0 34 -24 58t-58 24h-655q-23 0 -41.5 -11t-29.5 -30t-11 -41v-656q0 -34 24 -58t58 -24h655
q34 0 58 24t24 58v68q0 9 -6 15.5t-15 6.5q-6 0 -11 -3t-8 -8t-3 -11v0v-64q0 -18 -12.5 -30.5t-30.5 -12.5h-413h-234q-18 0 -30.5 12.5t-12.5 30.5v647q0 12 5.5 22t15.5 16t22 6h647q9 0 17 -3.5t13.5 -9.5t9 -14t3.5 -17v-389q0 -5 3 -10t8 -8t11 -3zM728 524h-427
q-4 0 -7.5 -1t-6.5 -3.5t-5 -5t-3 -6t-1 -7.5q0 -9 6.5 -16t16.5 -7h427q2 0 4 1l6 2q2 1 4 2.5t3.5 3.5t2.5 4t1.5 5t0.5 5q0 10 -6.5 16.5t-15.5 6.5zM750 296q0 5 -1.5 9t-4.5 7t-7.5 5t-8.5 2h-427q-6 0 -11.5 -3t-8.5 -8.5t-3 -11.5t3 -11t8.5 -8t11.5 -3h427
q9 0 15.5 6.5t6.5 15.5z" />
    <glyph glyph-name="uF00D8" unicode="&#xf00d8;" 
d="M850 726h-230q-9 0 -15.5 -6.5t-6.5 -16t6.5 -16t15.5 -6.5h226q12 0 22 -6t16 -16t6 -22v-238v0q0 -6 3 -11t8 -8t12 -3q4 0 8 2t7 5t5 7t2 8v242q0 35 -25 60t-60 25zM110 377q9 0 15.5 6.5t6.5 15.5v0v238q0 18 13 31t32 13h242q9 0 15.5 6.5t6.5 16t-6.5 16
t-15.5 6.5h-247q-17 0 -33 -6.5t-27 -18t-18 -27t-7 -33.5v-242v0q0 -18 18 -21q3 -1 5 -1zM419 -77h-242q-19 0 -32 13t-13 32v231q0 9 -6.5 15.5t-16 6.5t-16 -6.5t-6.5 -15.5v-236q0 -14 4.5 -26.5t12.5 -23t18 -18.5t23 -12t27 -4h247q9 0 15.5 6.5t6.5 15.5
q0 4 -1.5 8.5t-4.5 7.5t-7 4.5t-9 1.5zM913 221q-4 0 -7.5 -1t-6 -3.5t-4.5 -5t-3.5 -6t-1.5 -6.5v-231q0 -12 -6 -22.5t-16 -16.5t-22 -6h-226q-9 0 -15.5 -6.5t-6.5 -15.5t6.5 -15.5t15.5 -6.5h230q23 0 42.5 11t31 30.5t11.5 42.5v236q0 9 -6.5 15.5t-15.5 6.5zM905 280
q9 0 15.5 6.5t6.5 16t-6.5 16t-15.5 6.5h-772v-1q-3 0 -6 -1t-5.5 -3.5t-4.5 -5t-3 -5.5t-1 -7q0 -8 6 -14.5t14 -7.5h772z" />
    <glyph glyph-name="uF00D9" unicode="&#xf00d9;" 
d="M809 40l-31 -31l147 -148l31 32zM455 742q-106 0 -196 -52.5t-142 -142t-52 -195.5t52 -196t142 -142t196 -52t195.5 52t142 142t52.5 196q0 63 -20 122.5t-56 107.5t-84 84t-107.5 56t-122.5 20zM455 6q-94 0 -173.5 46.5t-126 126t-46.5 173.5q0 70 27.5 134t74 110
t110.5 73.5t134 27.5q94 0 173.5 -46t125.5 -125.5t46 -173.5q0 -41 -9 -79.5t-26 -72.5t-40.5 -64t-53.5 -53.5t-64 -40.5t-73 -26.5t-79 -9.5z" />
    <glyph glyph-name="uF00DA" unicode="&#xf00da;" 
d="M542 272q12 0 22.5 7t16.5 18.5t6 25.5v62q0 22 -13 37t-32 15q-9 0 -17.5 -4t-14.5 -11t-9.5 -16.5t-3.5 -20.5v-62q0 -34 27 -47q9 -4 18 -4zM511 742q-117 0 -219 -57q-25 18 -66 36.5t-63 23.5q-5 2 -11 1h-3q-10 -2 -16.5 -10.5t-4.5 -18.5q0 -4 0.5 -7t1.5 -6
q25 -51 18 -132v-6l1 -8q1 -5 4 -8t7 -5q6 -3 12 -2t11.5 5t8.5 11q2 5 2 11q2 15 0.5 50t-5.5 65q40 -17 74 -49q16 -14 35 -5q98 62 213 62q80 0 154 -31.5t127 -84.5t84.5 -126t31.5 -153.5t-31.5 -153.5t-84.5 -125.5t-126.5 -84t-154.5 -32.5q-111 -2 -203 54
t-143.5 150t-51.5 202q0 11 2.5 33.5t5.5 44t5 29.5l3 17l-1 5q-1 8 -7.5 13.5t-14.5 5.5q-6 0 -11.5 -3t-8.5 -7.5t-4 -10.5l-6 -23q-5 -12 -8.5 -47.5t-3.5 -56.5q0 -72 21.5 -141t62 -125.5t95 -99t123.5 -66t145 -23.5q91 0 173.5 35t142.5 94.5t95.5 142t35.5 172.5
q0 52 -12 102t-34 94t-52.5 82.5t-69.5 69t-83 52.5t-94 33.5t-102 11.5zM772 323v62q0 22 -13 37t-32 15q-9 0 -17.5 -4t-14.5 -11t-9.5 -16.5t-3.5 -20.5v-62q0 -21 13 -36t32 -15t32 15t13 36z" />
    <glyph glyph-name="uF00DD" unicode="&#xf00dd;" 
d="M775 732h-527q-20 0 -34 -14t-14 -34v-766q0 -20 14 -34t34 -14h527q20 0 34 14t14 34v766q0 20 -14 34t-34 14zM775 -58q0 -10 -7 -17t-17 -7h-479q-10 0 -17 7t-7 17v167h527v-167zM775 157h-527v503q0 10 7 17t17 7h479q10 0 17 -7t7 -17v-503zM512 -34q13 0 24 6
t17.5 17.5t6.5 24.5q0 9 -4 18t-10.5 15.5t-15 10t-18.5 3.5q-20 0 -34 -14t-14 -33.5t14 -33.5t34 -14z" />
    <glyph glyph-name="uF00DE" unicode="&#xf00de;" 
d="M943 298q0 88 -34 168t-92 137.5t-137.5 91.5t-167.5 34q-117 0 -216.5 -57.5t-157 -157t-57.5 -216.5t57.5 -216t157 -157t216.5 -58q143 0 259 88q5 6 5 13q0 8 -5.5 13.5t-13.5 5.5t-14 -6q-103 -76 -231 -76q-106 0 -196 52t-142 142t-52 196t52 196t142 142.5
t196 52.5t196 -52.5t142.5 -142.5t52.5 -196q0 -24 -3 -48t-8.5 -47t-14 -45t-19.5 -42v-1l-1 -5q0 -3 1 -6t3 -5.5t4 -4t5 -2.5t6 -1q6 0 11 3.5t7 9.5v-1q49 95 49 198zM328 83h367q16 0 26.5 11t10.5 26v166q18 22 18 49v149v6q0 10 -5.5 16t-10.5 6l-6 1h1h-434h-3
q-1 0 -4.5 -1.5t-6.5 -3.5t-5.5 -6.5t-2.5 -11.5v-155q0 -9 2.5 -18t6.5 -16.5t10 -14.5v-166q0 -26 24 -35q7 -2 12 -2zM604 476h110v-122q0 -23 -16.5 -39.5t-38.5 -16.5q-15 0 -28 7.5t-20 20.5t-7 28v122zM457 476h110v-122q0 -6 -1 -11.5t-3 -10.5t-5 -9.5t-7 -8
t-8.5 -7t-9.5 -5.5t-10 -3t-11 -1q-15 0 -27.5 7.5t-20 20.5t-7.5 28v122zM439 286q22 -25 55 -25h36q33 0 55 25q22 -25 55 -25h37q8 0 18 2v-105q0 -16 -10.5 -27t-25.5 -11h-294q-15 0 -26 11t-11 27v105q5 -1 9.5 -1.5t9.5 -0.5h37q32 0 55 25zM310 476h110v-122
q0 -23 -16 -39.5t-39 -16.5t-39 16.5t-16 39.5v122z" />
    <glyph glyph-name="uF00DF" unicode="&#xf00df;" 
d="M753 276q20 0 20 21q0 8 -6 14t-14 6h-222v222q0 9 -6 15t-14.5 6t-15 -6t-6.5 -15v-222h-222q-5 0 -10 -2.5t-7.5 -7.5t-2.5 -10t1.5 -8.5t4 -6.5t6.5 -4.5t8 -1.5h222v-222q0 -9 6.5 -15t15 -6t14.5 6t6 15v222h222zM942 298q0 118 -58 217t-157.5 157t-216.5 58
t-216.5 -58t-157 -157t-57.5 -216.5t57.5 -217t157 -157t216.5 -57.5q144 0 260 88q5 6 5 12q0 8 -5.5 14t-13.5 6q-9 0 -14 -6q-17 -12 -34 -22.5t-35.5 -19t-38 -15t-40 -11t-41.5 -6.5t-43 -2q-106 0 -196 52t-142 142t-52 196.5t52 196.5t142 142t196 52q80 0 152.5 -31
t124.5 -83t83 -124.5t31 -152.5q0 -98 -44 -182v-1q-1 -3 -1 -5q0 -5 2.5 -9.5t7 -7t9.5 -2.5q13 0 18 12q9 18 16.5 36.5t13.5 38.5t10 40t6.5 41t2.5 42z" />
    <glyph glyph-name="uF00E0" unicode="&#xf00e0;" 
d="M895 151q9 0 15 6.5t6 15.5v284q0 35 -24 59.5t-58 24.5h-94q-26 86 -87.5 138t-145.5 52t-146 -52t-88 -138h-94q-22 0 -41 -11.5t-30 -30.5t-11 -42v-507q0 -34 24 -59t58 -25h655q34 0 58 25t24 59v24q0 9 -6 15.5t-15 6.5t-15.5 -6.5t-6.5 -15.5v0v-19
q0 -19 -12.5 -31.5t-30.5 -12.5h-412h-235q-11 0 -21 5.5t-16 16t-6 22.5v498q0 9 3.5 17t9.5 14t14 9.5t16 3.5h79q-2 -11 -3 -23l-2 -22q-1 -12 -1 -24q0 -13 1 -26.5t3 -26.5q-12 -7 -19.5 -19t-7.5 -26q0 -21 14.5 -36t35.5 -15q13 0 24.5 7t18 18.5t6.5 25.5
q0 30 -26 44q-1 9 -2 17.5t-1.5 18t-0.5 18.5q0 18 1.5 35t5.5 34h396q7 -34 7 -69q0 -26 -5 -54q-25 -15 -25 -44q0 -7 1.5 -13.5t5 -12t8 -10.5t10 -8t12 -5t13.5 -2q20 0 34.5 15t14.5 36q0 15 -7.5 27t-20.5 18q4 28 4 53v14q0 7 -0.5 14t-1.5 14t-2 13.5t-2 13.5h79
q9 0 17 -3.5t13.5 -9.5t9 -14t3.5 -17v-280q0 -9 6.5 -15.5t15.5 -6.5zM321 541q16 42 42 73t63 48.5t81 17.5q65 0 113 -37.5t72 -101.5h-371z" />
    <glyph glyph-name="uF00E1" unicode="&#xf00e1;" 
d="M944 299q0 117 -58 216.5t-157 157t-216 57.5q-88 0 -167.5 -34t-137.5 -92t-92 -137.5t-34 -167.5q0 -117 57.5 -216t157 -156.5t216.5 -57.5q143 0 259 88q2 1 3 3t1.5 4.5t0.5 4.5q0 8 -5.5 13.5t-13.5 5.5t-14 -6q-103 -76 -231 -76q-106 0 -195.5 52.5t-142 142
t-52.5 195.5t52.5 196t142 142t195.5 52q80 0 152 -31t124.5 -83t83 -124t30.5 -152q0 -33 -5 -64.5t-15 -61t-24 -56.5v-1l-1 -5q0 -8 5.5 -13.5t13.5 -5.5q6 0 11 3.5t7 9.5q23 45 36 95t13 102zM759 450l-132 -131l-19 -19l-142 -143l-28 29l-19 19l-131 131h-1
q-13 13 -27 1l-1 -1h-1l-17 -17l-19 -17q-6 -6 -6 -14.5t6 -15t14.5 -6.5t14.5 6v1l19 16l3 4l116 -117l20 -19l43 -43q6 -6 14.5 -6t14.5 6v1l156 156l19 19l131 131h1q6 6 6 14.5t-6 14.5t-14.5 6t-14.5 -6z" />
    <glyph glyph-name="uF00E2" unicode="&#xf00e2;" 
d="M511 145q72 0 123 52t51 125v244q0 74 -51 126t-123 52q-61 0 -109 -40l-6 -5v-1h-1h1q-5 -6 -5 -14q0 -10 6.5 -16.5t15.5 -6.5q3 0 5.5 0.5t5 1.5t4.5 3q36 33 83 33q54 0 92 -42t38 -102v-221q0 -60 -38 -102.5t-92 -42.5t-92 42.5t-38 102.5l-1 195v1q0 10 -6 16
t-15 6q-3 0 -5.5 -0.5t-4.5 -1.5t-3.5 -2.5l-3.5 -3.5l-2 -4q-2 -2 -2.5 -4.5t-0.5 -5.5l1 -2v-2q-1 -3 -1 -4v-200q0 -73 51 -125t123 -52zM792 322q0 8 -5.5 13t-13 5t-12.5 -5.5t-5 -12.5v-1q-7 -95 -77.5 -161t-167.5 -66t-167.5 66t-77.5 161q-1 5 -3 9.5t-6.5 6.5
t-8.5 2q-8 0 -13 -5t-5 -13v-1v0q8 -106 81.5 -180.5t177.5 -82.5v-1v-177q0 -22 22 -22t22 22v177v1q102 8 175.5 82t82.5 178q1 3 1 5v0z" />
    <glyph glyph-name="uF00E3" unicode="&#xf00e3;" 
d="M726 697q-7 7 -16.5 7t-16 -6.5t-6.5 -16.5q0 -2 0.5 -4.5t1.5 -4.5t2.5 -3.5t2.5 -3.5l155 -155h-171q-69 -9 -120 -31t-85 -55t-56.5 -82t-34 -105.5t-17.5 -133.5q0 -9 6.5 -15.5t16 -6.5t16 6.5t6.5 15.5q3 39 7 69.5t10.5 61t14.5 55t19.5 47.5t26 40t33.5 32.5
t42 26t52 18.5t63 11h171l-155 -155q-6 -7 -6 -15q0 -5 2 -9t5 -7t7 -5t8 -2q9 1 16 6l207 208v5zM875 232q-9 0 -15 -6.5t-6 -14.5v0v-222q0 -17 -12.5 -29.5t-30.5 -12.5h-407h-232q-18 0 -30.5 12.5t-12.5 29.5v414v137q0 18 12.5 30.5t30.5 12.5h299q6 0 11 3t7.5 8
t2.5 10.5t-2.5 10.5t-7.5 8t-11 3h-304q-22 0 -40.5 -11t-29.5 -29.5t-11 -40.5v-142v-418q0 -22 11 -40.5t29.5 -29.5t40.5 -11h648q34 0 57.5 23.5t23.5 57.5v226q0 8 -6 14.5t-15 6.5z" />
    <glyph glyph-name="uF00E4" unicode="&#xf00e4;" 
d="M291 178q-4 0 -7.5 -1t-6.5 -3.5t-5.5 -5.5t-3.5 -6.5t-1 -7.5q0 -10 7 -17t17 -7h354q10 0 17 7t7 17q0 7 -3 12.5t-8.5 8.5t-12.5 3h-354zM914 238q9 0 16 6.5t7 15.5v363q0 36 -25.5 61t-60.5 25h-685q-35 0 -60 -25t-25 -61v-589q0 -36 25 -61t60 -25h685
q35 0 60.5 25t25.5 61v71q-1 9 -7.5 15.5t-15.5 6.5q-6 0 -11 -3t-8 -8t-4 -11v0v-67q0 -18 -13 -31.5t-32 -13.5h-430h-245q-12 0 -22.5 6t-16.5 16.5t-6 22.5v581q0 18 13 31.5t32 13.5h675q19 0 32 -13.5t13 -31.5v-359q0 -9 7 -15.5t16 -6.5zM736 511h-445q-10 0 -17 -7
t-7 -17q0 -5 2 -9.5t5 -7.5t7.5 -5t9.5 -2h445q10 0 17 7t7 17q0 6 -3 11.5t-8.5 9t-12.5 3.5zM736 297q5 0 9.5 2t7.5 5t5 7.5t2 9.5q0 6 -3 11.5t-8.5 8.5t-12.5 3h-445q-10 0 -17 -7t-7 -16.5t7 -16.5t17 -7h445z" />
    <glyph glyph-name="uF00E5" unicode="&#xf00e5;" 
d="M844 171h-308v118h308q9 0 15.5 7t6.5 16t-6.5 16t-15.5 7h-308v65l282 281q7 6 7.5 15.5t-5.5 16.5t-15.5 7.5t-16.5 -5.5l-275 -273l-281 279q-7 6 -16.5 5.5t-15.5 -7.5q-4 -5 -5 -11t0.5 -11.5t6.5 -9.5l288 -286v-66h-308q-9 0 -16 -7t-7 -16t7 -16t16 -7h308v-118
h-308q-9 0 -16 -6.5t-7 -16t7 -16t16 -6.5h308v-235q0 -9 6.5 -15.5t16 -6.5t16 6.5t6.5 15.5h1v235h308q4 0 8.5 1.5t7.5 4.5t4.5 7.5t1.5 8.5q0 10 -6.5 16.5t-15.5 6.5z" />
    <glyph glyph-name="uF00E6" unicode="&#xf00e6;" 
d="M875 102h-570l41 118q7 9 4 20v1l-134 417q-4 17 -22 19h-2v0l-86 16q-10 1 -18 -5t-9.5 -16t4 -18t16.5 -10l73 -13l128 -393l-59 -146l-1 -1v-1q-1 -3 -2 -5q0 -1 -0.5 -2t-0.5 -3l-1 -1v-1l1 -1v-1q0 -2 1 -5v-1q1 -2 1 -3l3 -4l3 -3q0 -1 1 -2q1 0 2 -1h1q3 -2 4 -2
q3 -1 6 -1h1l1 -1h614q6 0 12 3.5t9 9t3 12.5q0 5 -2 9.5t-5 8t-7.5 5t-9.5 1.5zM935 536v2q1 2 1 3t-0.5 2l-0.5 1v2q-1 4 -3 7q0 1 -0.5 1t-0.5 1l-3 3l-2 2q-1 0 -2 1q-3 2 -6 3h-2v1h-1h-1h-1h-2h-561q-11 0 -18 -7t-7 -17t7 -17.5t18 -7.5h509h17l-92 -265h-344
q-10 0 -17 -7t-7 -17t7 -17.5t17 -7.5h353h2l1 1q10 -2 18.5 3.5t11.5 14.5l107 310l1 2l1 3v0zM395 -5q-19 0 -32 -13t-13 -31.5t13 -31.5t31.5 -13t31.5 13t13 32q0 29 -27 41q-9 3 -17 3zM733 -5q-18 0 -31 -13t-13 -31.5t13 -31.5t31 -13q12 0 22.5 6t16.5 16.5t6 22.5
q0 29 -28 41q-8 3 -17 3z" />
    <glyph glyph-name="uF00E7" unicode="&#xf00e7;" 
d="M901 6l-123 231v-1q-2 3 -3.5 5t-4 3.5t-5 2t-5.5 0.5q-9 0 -15 -6t-6 -14q0 -5 3 -10v-1l100 -187l-99 26q-8 2 -15 -1.5t-10 -11.5l-38 -106l-125 233q5 1 20.5 3t19 2.5t15 3t16 4.5t13 6t15.5 9t15 12q1 0 1.5 0.5t0.5 1.5h1l1 1v1q4 6 4 12t-2.5 10.5t-7.5 7.5
t-11 3q-2 0 -3.5 -0.5t-3.5 -1.5t-3.5 -2t-2.5 -2l-1 1q-19 -17 -40.5 -24t-35 -8t-51.5 -1q-98 0 -167.5 71.5t-69.5 172t69.5 171.5t167.5 71t167.5 -71t69.5 -172q0 -57 -25 -108q0 -2 -0.5 -3.5t-0.5 -3.5q0 -8 6 -14.5t15 -6.5q3 0 6 1.5t5.5 3.5t4.5 4h1v2l1 1
q1 1 1 2q28 59 28 122q0 29 -6 57.5t-16.5 54t-25.5 48.5t-34 42t-41.5 34.5t-47 26.5t-52.5 17t-56 6q-115 0 -196.5 -84t-81.5 -202q0 -82 42 -152l-156 -293q-7 -12 1.5 -23t21.5 -7l127 34l48 -133q1 -3 2.5 -5.5t4 -4t5 -2.5t5.5 -2h2q4 0 7.5 1.5t6 4t4.5 5.5l154 288
l154 -288q6 -11 18 -11h2q13 1 17 14l48 133l127 -34q3 -1 6 -1t5.5 1t5 3t4.5 4q9 11 2 23zM344 -64l-38 106q-3 8 -10 12t-15 1l-99 -26l125 233q65 -75 162 -92zM426 382q-2 3 -45 123h-23l56 -142h23l56 142h-23q-43 -120 -43 -123h-1zM564 505v-142h22v54h35
q51 0 52 45q-3 41 -50 43h-59zM650 462q0 -27 -32 -28h-32v54h32q16 0 24 -6.5t8 -19.5zM511 363h21v142h-21v-142z" />
    <glyph glyph-name="uF00E8" unicode="&#xf00e8;" 
d="M630 350.5q0 -19.5 14 -34t34 -14.5q6 0 11 1.5t10 4t9 5.5t7.5 7.5t5.5 9t3.5 10t1.5 10.5q0 20 -14 34t-34 14t-34 -14t-14 -33.5zM942 614q0 30 -21 51t-51 21h-719q-30 0 -51 -21t-21 -51v-527q0 -30 21 -51t51 -21h263l96 -96l96 96h264q30 0 51 21t21 51v86h-1
q0 9 -7 15.5t-16.5 6.5t-16 -6.5t-7.5 -15.5v-62q0 -6 -1.5 -11.5t-4 -10t-5.5 -8.5t-7 -7.5t-9 -6t-10.5 -3.5t-10.5 -1h-264l-72 -72l-72 72h-263q-20 0 -34 14t-14 34v479q0 20 14 34t34 14h671q20 0 34 -14t14 -34v-228v-1v-1q0 -7 3 -12.5t8.5 -8.5t12.5 -3q4 0 7.5 1
t6.5 3.5t5 5.5t3.5 6.5t1.5 7.5v1l-1 1h1v252zM294 350q0 -9 4 -18t10.5 -15.5t15.5 -10.5t18.5 -4t18.5 4t15.5 10.5t10 15.5t3.5 18q0 20 -14 34t-33.5 14t-34 -14t-14.5 -34zM462 350q0 -9 4 -18t10.5 -15.5t15 -10.5t18.5 -4q20 0 34 14.5t14 34t-14 33.5t-34 14
q-13 0 -24 -6.5t-17.5 -17.5t-6.5 -24z" />
    <glyph glyph-name="uF00E9" unicode="&#xf00e9;" 
d="M437 471.5q0 29.5 -21 50t-50.5 20.5t-50 -20.5t-20.5 -50t20.5 -50t50 -20.5t50.5 20.5t21 50zM342 495h47v-47h-47v47zM231 101q2 -3 6 -5t7.5 -2.5t7.5 0t7.5 2.5t6.5 5l128 172l143 -101q2 -3 5 -4.5t6.5 -2.5t6.5 0q2 -1 4.5 -0.5t5 1.5t4.5 2.5t4 3.5l211 234
q7 7 7 17.5t-7 17.5t-17.5 7t-17.5 -7l-198 -220l-143 102q-7 7 -19 7h-3h-4l-2 -2q-2 0 -4 -1l-2 -2l-4 -2l-139 -187q-8 -8 -8 -18t8 -17zM933 623q0 35 -25 60t-60 25h-681q-35 0 -60 -25t-25 -60v-587q0 -35 25 -60t60 -25h681q35 0 60 25t25 60v71q0 9 -6.5 15.5
t-15.5 6.5t-15.5 -6.5t-7.5 -15.5v0v0v-66q0 -19 -13 -32t-31 -13h-429h-243q-13 0 -23 6t-16 16.5t-6 22.5v577q0 19 13 32t32 13h672q12 0 22 -6t16 -16t6 -23v-356v0q0 -10 7 -16.5t16 -6.5q6 0 11 3t8 8t3 12v0v361z" />
    <glyph glyph-name="uF00EA" unicode="&#xf00ea;" 
d="M916 247q3 0 6 0.5t5.5 2t4.5 3.5t3.5 4.5t2 5.5t0.5 6v285q0 25 -15 47v1l-1 1l-1 1l-1 1q-12 15 -29 23.5t-36 8.5h-691q-35 0 -59.5 -24.5t-24.5 -58.5v-506q0 -35 24.5 -59t59.5 -24h691q34 0 58.5 24t24.5 59v70q0 5 -3 10.5t-8 8t-11 2.5q-9 0 -15.5 -6t-6.5 -15
v-1v0v-65q0 -18 -13 -31t-31 -13h-443h-239q-18 0 -31 13t-13 31v497q0 3 1 7l384 -313q4 -3 11 -4h3h1h3q3 0 6 1t5 3l356 309v-1v-2v-280q0 -9 6.5 -15.5t15.5 -6.5zM168 593h682q9 0 17 -3l-344 -300l-367 301z" />
    <glyph glyph-name="uF00EB" unicode="&#xf00eb;" 
d="M829 688l-7 10h-610l-7 -9q-55 -70 -86 -133t-36.5 -109.5t-1.5 -76.5t16 -55q10 -20 25 -37t33 -28.5t38.5 -18t41.5 -6.5h5q86 4 145 65q10 -11 21.5 -20.5t28 -19.5t38 -15.5t45.5 -5.5q17 0 33 3t29 8t24 11t20.5 14t16.5 14.5t13 13.5q31 -26 71 -46t82 -20
q61 0 104 50q25 30 31.5 72t-4 88t-25 86.5t-36.5 80.5t-31.5 56.5t-16.5 27.5zM875 308q-10 -11 -20.5 -18.5t-22.5 -11t-26 -3.5q-27 0 -59 15.5t-48.5 28t-28.5 24.5v163v1q0 10 -7 17t-17 7q-5 0 -9.5 -1.5t-7.5 -5t-5 -8t-2 -9.5v-177q-39 -53 -104 -53q-22 0 -42 6.5
t-33 17.5t-20 19t-12 15v172q0 10 -7 17t-17 7q-7 0 -12.5 -3t-8.5 -8.5t-3 -12.5v-171q-4 -5 -8.5 -10t-13 -12.5t-18.5 -14t-22.5 -12.5t-28.5 -9.5t-34 -4.5h-3q-26 0 -53 16t-42 47q-9 20 -12 44.5t2 63t32 92.5t73 115h561q17 -27 34 -59t34 -74t26 -79t6 -73t-21 -58z
M831.5 198q-6.5 0 -12 -3t-9 -8.5t-3.5 -12.5v0v-174q0 -9 -3.5 -18t-10 -15.5t-15.5 -10.5t-19 -4h-207h-288q-20 0 -34 14t-14 34v174q0 4 -1.5 7.5t-3.5 6.5t-5 5.5t-6.5 3.5t-7.5 1t-8 -1t-6.5 -3.5t-5 -5.5t-3.5 -6.5t-1 -7.5v-178q0 -25 12 -46.5t33 -33.5t46 -12h505
q38 0 64.5 27t26.5 65v178q0 7 -3 12.5t-8.5 8.5t-12 3z" />
    <glyph glyph-name="uF00EC" unicode="&#xf00ec;" 
d="M674 703q-38 16 -79 24t-84 8q-71 0 -137 -22t-119.5 -62t-94 -93.5t-62.5 -120t-22 -137.5q0 -88 34.5 -168.5t93 -139t139 -93t169 -34.5t169 34.5t138.5 93t92.5 139t34.5 168.5q0 85 -32 164l-110 -101l-14 -17q2 -12 3 -22t1 -24q0 -57 -22.5 -109.5t-60.5 -90.5
t-90 -60t-110 -22q-77 0 -142 37.5t-102.5 102.5t-37.5 142q0 117 82.5 200.5t199.5 82.5q29 -1 39 -2zM627 454l-61 -61v-1h1l-32 -31l-6 2q-3 1 -6 1.5t-6 0.5h-6q-27 0 -46 -19t-19 -46q0 -13 5 -25t14 -21t21 -14t25 -5q27 0 46 19t19 46q0 4 -0.5 8t-1.5 8l-2 8l71 71
l21 21l128 -19l154 153l-161 23l-75 -74l76 76l-24 160l-154 -154zM511 408q5 0 10 -0.5t10 -1.5l56 57l-10 68q-33 9 -66 9q-49 0 -93 -19t-76.5 -51t-51.5 -76.5t-19 -93.5q0 -99 70.5 -169.5t170 -70.5t169.5 70.5t70 169.5q0 16 -2 31t-6 30l-70 15l-56 -56
q1 -5 1.5 -10t0.5 -10q0 -22 -8.5 -42t-23 -34.5t-34.5 -23t-42 -8.5q-45 0 -76.5 31.5t-31.5 76.5t31.5 76.5t76.5 31.5z" />
    <glyph glyph-name="uF00ED" unicode="&#xf00ed;" 
d="M513 496q10 0 20 -1.5t20 -3.5l-7 45q-17 3 -33 3q-99 0 -168.5 -69.5t-69.5 -168t69.5 -168.5t168 -70t168 70t69.5 168q0 9 -0.5 17t-1.5 17l-45 7q4 -20 4 -41q0 -81 -57 -138t-137.5 -57t-137.5 57t-57 138t57 138t138 57zM628 453l-109 -109h-6q-12 0 -22 -5.5
t-16 -15.5t-6 -22q0 -1 0.5 -2.5t0.5 -3.5v-1q1 -9 6 -16.5t13 -12.5t17 -7h1h6q7 0 13.5 2t12 6t9.5 9.5t6 12t2 13.5v6l109 109l127 -19l153 153l-160 23l-33 -33l119 -16l-92 -85l-116 13l-17 119l86 81l20 -112l34 34l-24 159l-153 -152zM892 388q10 -43 10 -87
q0 -106 -52 -195.5t-142 -141.5t-195.5 -52t-195 52t-141.5 141.5t-52 195.5t52 195.5t141.5 141.5t195.5 52q44 0 86 -10l36 36q-20 6 -40 9.5t-40.5 5.5t-41.5 2q-118 0 -217.5 -57.5t-157.5 -157.5t-58 -217t58 -217t157.5 -157.5t217 -57.5t217 57.5t157.5 157.5t58 217
q0 21 -2 42t-6 41t-9 39z" />
    <glyph glyph-name="uF00EE" unicode="&#xf00ee;" 
d="M915 293q6 0 11 3t7.5 8t2.5 11v231q0 34 -23.5 57.5t-57.5 23.5h-693q-17 0 -32 -6.5t-25.5 -17t-17 -25.5t-6.5 -32v-491q0 -33 23.5 -57t57.5 -24h693q34 0 57.5 24t23.5 57v68q0 6 -2.5 10.5t-7.5 7.5t-11 3q-9 0 -15 -6t-6 -15v0v-63q0 -18 -12.5 -30.5t-30.5 -12.5
h-408h-277q-17 0 -29.5 12.5t-12.5 30.5v329h770v-74q0 -9 6 -15.5t15 -6.5zM124 542q0 11 5.5 21t15.5 16t21 6h685q18 0 30.5 -12.5t12.5 -30.5v-27h-770v27zM124 432v40h770v-40h-770zM760 180v-131h21v49h33q48 1 48 42q-1 19 -12.5 29t-33.5 11h-56zM841 139
q0 -12 -7.5 -18.5t-22.5 -6.5h-30v50h30q29 -1 30 -25zM727 49v131h-20v-131h20zM243 83v78h-78v-78h78zM623 66q-1 3 -42 114h-22l53 -131h22l52 131h-22q-40 -111 -40 -114h-1z" />
    <glyph glyph-name="uF00EF" unicode="&#xf00ef;" 
d="M506 452q-48 0 -89.5 -24t-65 -65t-23.5 -89q0 -73 52 -125t126 -52q49 0 90 23.5t65 64.5t24 89q0 74 -52.5 126t-126.5 52zM506 141q-55 0 -94.5 39t-39.5 94t39.5 94t94.5 39q36 0 67 -17.5t49 -48.5t18 -67q0 -68 -56 -108q-35 -25 -78 -25zM891 220q1 -6 4 -11
t8.5 -7.5t11.5 -2.5q9 0 16 6t7 15h1v295q0 19 -14 33t-34 14h-167l-24 48q-2 5 -6.5 13t-17 21t-24.5 13h-287q-11 0 -23 -12t-18 -24l-6 -11l-24 -48h-167q-20 0 -34 -14t-14 -33v-523q0 -20 14 -34t34 -14h764q20 0 34 14t14 34v66q0 4 -1.5 8t-3.5 7t-5 5t-6.5 3t-7.5 1
q-5 0 -9.5 -1.5t-7.5 -5t-5 -8t-2 -9.5v-42q0 -7 -3 -12.5t-8.5 -8.5t-12.5 -3h-717q-9 0 -16 7t-7 17v479q0 10 7 17t16 7h168v1l38 60q17 30 38 30h229q10 0 19.5 -7.5t14.5 -15.5l5 -7l38 -60h167q10 0 17 -6.5t7 -16.5v-277zM752 452q0 -15 10.5 -26t26 -11t26.5 11
t11 26q0 4 -1 8t-3 8t-4.5 7t-5.5 5.5t-7 4.5t-8 3t-8 1q-10 0 -18.5 -5t-13.5 -13.5t-5 -18.5z" />
    <glyph glyph-name="uF00F0" unicode="&#xf00f0;" 
d="M902 287q25 -16 36 -5q5 5 7 12t0 14t-7 12l-388 383q-15 18 -39 18q-11 0 -20.5 -4.5t-13.5 -9.5l-4 -4l-388 -383q-8 -8 -8 -19t8 -19q9 -7 18 -4t18 12l26 26l56 53v-53v-273v-88q0 -22 11 -41t30 -29.5t41 -10.5h144v42v12v191q0 17 12.5 29.5t30.5 12.5h79
q5 0 11 -1.5t10.5 -4t8.5 -6.5t7 -8.5t4.5 -10.5t1.5 -11v-191v-12v-42h144q34 0 58 23.5t24 57.5v361v51z" />
    <glyph glyph-name="uF00F1" unicode="&#xf00f1;" 
d="M936 322l-387 382q-15 17 -38 17q-6 0 -11 -1t-8.5 -2.5t-7 -3.5t-5.5 -4l-4 -2q-2 -2 -2 -3l-1 -1l-387 -382q-8 -8 -8 -19t8 -19q5 -6 12 -5.5t13 4t12 9.5l26 26l364 352l387 -381q10 -7 19 -9t18 4q8 8 8 19t-8 19zM797 340q-9 0 -15.5 -6.5t-6.5 -15.5v0v-355
q0 -18 -12.5 -30.5t-30.5 -12.5h-96v206q0 22 -11 40.5t-30 29.5t-41 11h-87q-16 0 -31.5 -6.5t-26.5 -17.5t-17.5 -26t-6.5 -31v-206h-96q-7 0 -13.5 2t-12 6t-9.5 9.5t-6 12t-2 13.5v355q0 6 -3 11t-8 8t-11 3q-2 0 -4.5 -0.5t-4.5 -2t-4 -2.5t-3.5 -3t-2.5 -4t-1.5 -4.5
t-0.5 -5.5v-360q0 -33 24 -57t58 -24h143v244q0 9 3.5 17t9.5 13.5t14 9t17 3.5h78q17 0 30 -12.5t13 -30.5v-244h143q23 0 41.5 11t29.5 29.5t11 40.5v360q0 5 -1.5 9t-4.5 6.5t-7 4.5t-8 2z" />
    <glyph glyph-name="uF00F3" unicode="&#xf00f3;" 
d="M809 436q0 81 -40.5 149.5t-109.5 108t-151 39.5q-61 0 -116.5 -23.5t-96 -63t-64 -94.5t-23.5 -116q0 -35 8 -68.5t23 -63t36 -55t48 -46.5q-96 -48 -156 -137t-68 -197h45q8 102 69 185.5t154 119.5q74 -35 141 -35q68 0 130 30l31 18l25 16q53 42 84 103t31 130z
M508 188q-104 0 -177.5 72.5t-73.5 175.5q0 68 33.5 125t91.5 90.5t126.5 33.5t126.5 -33.5t91.5 -90.5t33.5 -125q0 -111 -80 -184q-72 -64 -172 -64zM763 160l-1 -1q-3 4 -8 6t-10 2q-28 0 -28 -21q0 -8 4 -14t11 -10q118 -85 131 -253h55q-6 86 -46.5 162t-107.5 129z
" />
    <glyph glyph-name="uF00F4" unicode="&#xf00f4;" 
d="M919 291q6 0 11 3t8 7.5t3 10.5v239q0 34 -24 58t-58 24h-699q-34 0 -58 -24t-24 -58v-495q0 -34 24 -58t58 -24h699q34 0 58 24t24 58v91q0 9 -6.5 15t-15.5 6q-5 0 -10 -3t-8 -7.5t-3 -10.5v0v-87q0 -18 -12.5 -30.5t-30.5 -12.5h-434h-257q-17 0 -30 12.5t-13 30.5
v487q0 17 13 30t30 13h691q12 0 21.5 -6t15.5 -16t6 -21v-235q0 -3 1 -6.5t3 -6t4.5 -4.5t6 -3t6.5 -1zM285 477q0 5 -3.5 8.5t-8.5 3.5h-57q-5 0 -8.5 -3.5t-3.5 -8.5v-57q0 -5 3.5 -8.5t8.5 -3.5h57q5 0 8.5 3.5t3.5 8.5v57zM285 330q0 3 -1.5 5.5t-4 4t-6.5 1.5h-57
q-5 0 -8.5 -3t-3.5 -8v-58q0 -3 1.5 -5.5t4.5 -4t6 -1.5h57q5 0 8.5 3t3.5 8v58zM273 194h-57q-5 0 -8.5 -3.5t-3.5 -8.5v-58q0 -4 3.5 -7.5t8.5 -3.5h57q5 0 8.5 3.5t3.5 7.5v58q-2 10 -12 12zM793 392h-446q-9 0 -15.5 -6t-6.5 -15t6.5 -15.5t15.5 -6.5h446q9 0 15.5 6.5
t6.5 15.5t-6.5 15t-15.5 6zM793 247h-446q-9 0 -15.5 -6t-6.5 -15q0 -6 3 -11t8 -8t11 -3h446q9 0 15.5 6.5t6.5 15.5t-6.5 15t-15.5 6z" />
    <glyph glyph-name="uF00F5" unicode="&#xf00f5;" 
d="M943 305q0 117 -58 216t-157 156.5t-216 57.5q-58 0 -114 -15.5t-103 -43t-87 -67.5t-67.5 -87t-43 -103t-15.5 -114q0 -117 57.5 -216t156.5 -156.5t216 -57.5q143 0 259 88q5 5 5 12q0 5 -2.5 9.5t-7 7t-9.5 2.5q-3 0 -5.5 -0.5t-4.5 -2t-4 -3.5q-103 -76 -230 -76
q-106 0 -196 52.5t-142 142t-52 195.5t52 195.5t142 142t196 52.5t195.5 -52.5t141.5 -142t52 -195.5q0 -98 -44 -182v-1q-1 -3 -1 -5q0 -8 5.5 -13.5t13.5 -5.5q13 0 18 13q49 94 49 197zM400 421q0 18 -13 30.5t-31 12.5t-30.5 -12.5t-12.5 -30.5t12.5 -31t30.5 -13
q12 0 22 6t16 16t6 22zM670 464q-18 0 -31 -12.5t-13 -30.5t13 -31t31 -13q12 0 22 6t15.5 16t5.5 21.5t-5.5 21.5t-15.5 16t-22 6zM702 181q0 9 -6 15.5t-15 6.5q-1 0 -5 -1h-1q-84 -39 -162 -39q-76 0 -160 38h-1q-2 1 -3.5 1.5t-3.5 0.5q-9 0 -15 -6.5t-6 -15.5
q0 -13 11 -19q94 -43 177 -43t178 43q12 7 12 19z" />
    <glyph glyph-name="uF00F6" unicode="&#xf00f6;" 
d="M510 473q-47 0 -87 -23.5t-63.5 -63.5t-23.5 -87t23.5 -87t63.5 -63.5t87 -23.5q40 0 76 18q11 5 11 17q0 8 -6 13.5t-14 5.5q-3 0 -7 -1l-14 -6q-7 -3 -14.5 -4.5t-15.5 -2.5t-16 -1q-56 0 -95.5 39.5t-39.5 95.5t39.5 95.5t95.5 39.5q27 0 52.5 -10.5t43.5 -28.5
t28.5 -43t10.5 -53q0 -10 -1.5 -19.5t-3.5 -18.5l-1 -5q0 -8 6 -13.5t14 -5.5q11 1 17 10q0 1 0.5 1.5t0.5 1.5v1q7 24 7 48q0 72 -51 123t-123 51zM922 395h-67q-2 10 -5.5 19.5t-6.5 18.5l-4 10l-9 17q-4 9 -9 17l47 47q8 8 8 18q0 4 -1 7t-2.5 6t-4.5 5l-97 97
q-5 5 -11.5 6.5t-13 0t-11.5 -6.5l-47 -47q-5 4 -11 7t-12.5 6t-12.5 6l-9 3q-18 7 -37 12v67q0 10 -7.5 17.5t-17.5 7.5h-138q-7 0 -12.5 -3.5t-9 -9t-3.5 -12.5v-67q-19 -5 -37 -12l-11 -4q-17 -8 -34 -18l-47 47q-5 5 -11.5 6.5t-13 0t-11.5 -6.5l-97 -97q-4 -3 -6 -8
t-2 -10q0 -10 8 -18l47 -47q-2 -3 -4 -7l-4 -6q-2 -4 -3.5 -8t-3.5 -8l-4 -8l-3 -8q-7 -18 -12 -37h-67q-7 0 -12.5 -3.5t-9 -9t-3.5 -12.5v-137q0 -11 7.5 -18.5t17.5 -7.5h67q5 -19 13 -38l3 -10q8 -17 18 -34l-47 -47q-8 -7 -8 -18t8 -18l97 -97q7 -7 18 -7t18 7l47 47
q17 -10 34 -17l8 -4l3 -1q18 -7 37 -12v-66q0 -11 7.5 -18.5t17.5 -7.5h138q5 0 9.5 2t8 5.5t5.5 8t2 10.5v66q19 5 38 13l10 3q9 4 17.5 8.5t16.5 9.5l47 -47q5 -5 11.5 -6.5t13 0t11.5 6.5l97 97q8 7 8 18t-8 18l-47 47q10 17 18 36l2 4l2 5q3 6 5 12.5t4 12.5t3 12h67
q10 0 17.5 7.5t7.5 18.5v137q0 10 -7.5 17.5t-17.5 7.5zM907 248h-83l-5 -20q-5 -22 -14 -44l-1 -4l-3 -4q-9 -21 -20 -40l-11 -17l59 -59l-76 -76l-59 59l-17 -11q-19 -11 -41 -21l-8 -3q-21 -9 -43 -14l-20 -4v-83h-107v83l-19 4q-22 6 -46 15l-7 3q-20 8 -39 20l-18 11
l-58 -59l-76 76l59 59l-11 17q-12 19 -21 41l-4 8q-8 21 -13 43l-5 20h-83v107h83l5 19q3 11 6.5 22t7.5 23l3 8l10 20q5 10 11 19l11 18l-59 58l76 76l58 -59l18 11q9 6 19.5 11t21.5 10l8 3q10 5 21 8l22 6l19 5v83h108v-83l19 -5q22 -5 45 -14l8 -3q20 -9 39 -21l18 -11
l58 59l76 -76l-59 -58l11 -18q12 -19 21 -41l4 -8q4 -11 7 -21.5t6 -21.5l5 -19h83v-107z" />
    <glyph glyph-name="uF00F7" unicode="&#xf00f7;" 
d="M949 381.5q-7 5.5 -15.5 4.5t-14.5 -8l-37 -46q-1 14 -2.5 27t-4.5 27q-17 81 -63.5 149.5t-112 110t-145 59t-161.5 -0.5q-108 -23 -189 -96t-115 -176.5t-11.5 -213t95 -190.5t175.5 -115.5t211 -11.5q59 12 110.5 40.5t92.5 70.5h1q0 1 0.5 2t1.5 1q3 5 3 9
q0 5 -2.5 9t-6.5 6.5t-9 2.5q-8 0 -13 -6q-38 -37 -84.5 -63t-100.5 -37q-74 -17 -146 -1t-131 54t-101.5 99.5t-57.5 135.5q-21 98 10 192t104.5 160t171.5 87q74 17 146 1t131 -54t101.5 -99.5t57.5 -135.5q3 -11 4.5 -22.5t2.5 -23.5l-45 36q-7 6 -15.5 5t-14 -8
t-4.5 -16t8 -15l82 -66q7 -6 16 -5t14 8h1l65 83h1q5 7 4 16t-8 14.5z" />
    <glyph glyph-name="uF00F8" unicode="&#xf00f8;" 
d="M784 521q-26 58 -63.5 108t-83.5 90l-1 -1q-7 5 -14 5q-11 0 -18 -7.5t-7 -17.5q0 -9 6 -16l1 -1v-1h1q42 -36 76 -81.5t58 -98.5q36 -80 43 -165t-12.5 -161t-64 -142.5t-108.5 -111.5q-4 -3 -6 -7.5t-2 -9.5q0 -7 3.5 -13t9 -9t12.5 -3q9 0 16 6l1 -1q93 66 147 172
t55.5 224.5t-49.5 241.5zM241 357q-16 0 -29 -7.5t-20.5 -20.5t-7.5 -29q0 -23 16.5 -39.5t40 -16.5t40 16.5t16.5 39.5q0 36 -32 51q-12 6 -24 6zM465 566q-4 5 -9 7.5t-12 2.5t-12.5 -3t-9 -8.5t-3.5 -11.5t4 -12q37 -37 64 -91q33 -64 35.5 -134t-22.5 -135t-75 -121
q-6 -6 -6 -14q0 -9 7 -15t17 -6t17 6v-1q87 95 108.5 211t-32.5 228q-27 52 -71 97z" />
    <glyph glyph-name="uF00F9" unicode="&#xf00f9;" 
d="M950 302q0 89 -35 170t-93.5 140t-139.5 93.5t-170 34.5t-170 -34.5t-140 -93.5t-93.5 -140t-34.5 -170t34.5 -170t93.5 -139.5t140 -93.5t170 -35q145 0 263 90q5 6 5 13q0 8 -5.5 13.5t-13.5 5.5q-4 0 -7.5 -1.5t-6.5 -4.5q-105 -77 -235 -77q-107 0 -198.5 53
t-144.5 144t-53 199t53 199.5t144.5 144.5t199 53t199 -53t144.5 -144.5t53 -199.5q0 -100 -45 -185q-1 -4 -1 -6q0 -4 1.5 -7.5t4 -6t6 -4t7.5 -1.5t7.5 1.5t6.5 4.5t4 6q50 96 50 201zM507 536q0 9 -6 15t-15 6t-15 -6t-6 -15v-249v-4q0 -3 2 -10t6 -12.5t12.5 -10
t21.5 -4.5h225q4 0 8 1.5t7 4.5t4.5 6.5t1.5 8.5q0 8 -6 14t-15 6h-225v249z" />
    <glyph glyph-name="uF00FA" unicode="&#xf00fa;" 
d="M949 302q0 89 -34.5 170t-93.5 139.5t-139.5 93t-169.5 34.5t-170 -34.5t-139.5 -93t-93 -139.5t-34.5 -170t34.5 -170t93 -139.5t139.5 -93t170 -34.5q48 0 95.5 11t89 30.5t78.5 48.5q1 1 2 2.5t1 2.5l2 4v3q0 5 -2.5 9.5t-7 7.5t-10.5 3q-4 0 -7.5 -2t-6.5 -4
q-50 -37 -109.5 -57.5t-124.5 -20.5q-107 0 -198.5 53t-144.5 144.5t-53 198.5q0 65 20 125.5t57 109t85.5 85t109 56.5t124.5 20q108 0 199 -53t144 -144t53 -199q0 -100 -45 -185q-1 -4 -1 -5q0 -6 2.5 -10.5t7 -7t9.5 -2.5q14 0 18 13q50 95 50 200zM397 419.5
q0 18.5 -13 31.5t-31 13t-31 -13t-13 -31.5t13 -31t31 -12.5t31 12.5t13 31zM671.5 464q-18.5 0 -31.5 -13t-13 -31.5t13 -31t32 -12.5q12 0 22 5.5t16 16t6 22.5q0 18 -13 31t-31.5 13zM342 141q3 0 7 1q78 35 163 35q44 0 85.5 -9t79.5 -26q5 -1 6 -1q9 0 15.5 6t6.5 15
q0 6 -3.5 11.5t-8.5 8.5h-1q-27 12 -56.5 21t-61 13.5t-62.5 4.5q-93 0 -181 -39q-5 -3 -8 -8t-3 -12q0 -9 6.5 -15t15.5 -6z" />
    <glyph glyph-name="uF00FB" unicode="&#xf00fb;" 
d="M950 302q0 89 -34.5 170.5t-93 140t-140 93.5t-170.5 35t-170.5 -35t-140 -93.5t-93 -140t-34.5 -170.5t34.5 -170t93 -140t140 -93.5t170.5 -34.5q146 0 264 89q5 6 5 13q0 8 -5.5 14t-13.5 6q-5 0 -8.5 -2t-6.5 -4q-50 -38 -110 -58t-125 -20q-107 0 -198.5 53
t-145 144.5t-53.5 199.5t53.5 199.5t145 144.5t199 53t199 -53t144.5 -144.5t53 -199.5q0 -100 -45 -185v-1q-1 -3 -1 -5q0 -5 2.5 -9.5t7 -7.5t10.5 -3q13 0 18 13q49 96 49 201zM539 415q0 9 -6.5 16t-16.5 7q-6 0 -11 -3t-8.5 -8.5t-3.5 -11.5v-328q0 -10 7 -16.5
t16 -6.5q7 0 12 3t8 8.5t3 11.5v328zM516 536q-3 0 -7 -1.5t-6.5 -3.5t-5 -5t-3.5 -6.5t-1 -7.5q0 -9 7 -16t16.5 -7t16.5 7t7 16.5t-7 16.5t-17 7z" />
    <glyph glyph-name="uF00FC" unicode="&#xf00fc;" 
d="M916.5 400q-9.5 0 -16 -6.5t-6.5 -16.5v0v-403q0 -19 -13.5 -32t-31.5 -13h-435h-247q-19 0 -32 13t-13 32v658q0 12 6 22.5t16.5 16.5t22.5 6h439q5 0 9 2t7 5t5 7t2 9q0 9 -7 16t-16 7h-444q-23 0 -43 -11.5t-31.5 -31.5t-11.5 -44v-222v-444q0 -18 7 -34t18.5 -27.5
t27.5 -18.5t33 -7h691q24 0 43.5 11.5t31.5 31.5t12 44v407q-1 10 -7.5 16.5t-16 6.5zM494 109l433 432q12 13 16 30.5t-1.5 36t-20.5 32.5l-40 40q-22 22 -51 23.5t-48 -17.5l-432 -432zM814 654q5 4 11.5 5.5t13.5 -0.5t13 -7l40 -41q9 -8 9.5 -19t-7.5 -19l-47 -48
l-80 81zM813 491l-322 -321l-80 80l322 322zM350 253l-45 -163q-3 -12 5 -20q4 -4 9.5 -5.5t10.5 0.5l163 44l-33 34l-106 -29l29 105z" />
    <glyph glyph-name="uF00FD" unicode="&#xf00fd;" 
d="M510 -89q-12 0 -75 48.5t-140 119.5t-117 121q-29 27 -53 66t-38 81t-14 76q0 112 71 191t171 79q30 0 59 -11.5t53.5 -31.5t45 -43.5t37.5 -51.5q22 38 50 67.5t66.5 50t77.5 20.5q100 0 171 -79t71 -191q0 -52 -31 -117.5t-75 -105.5q-59 -77 -184 -183t-146 -106z
M315 647q-39 0 -75.5 -18t-63 -48t-42 -71t-15.5 -87q0 -44 27 -100t64 -90q2 -1 3 -3q38 -49 106 -111t110.5 -95.5t81.5 -61.5q35 26 80 62t111 96.5t103 109.5q2 1 3 3q15 13 29 31t25.5 38.5t20 41.5t13 41.5t4.5 37.5q0 93 -57.5 158.5t-138.5 65.5q-34 0 -68.5 -22.5
t-60.5 -55.5t-45 -72q-2 -5 -8 -8.5t-12.5 -3.5t-12.5 3.5t-8 8.5q-29 62 -76.5 106t-97.5 44z" />
    <glyph glyph-name="uF0101" unicode="&#xf0101;" 
d="M832 688l-7 11h-610l-7 -9q-55 -70 -86 -133t-36.5 -109.5t-1 -76.5t16.5 -55q20 -41 57.5 -65.5t79.5 -24.5h6q33 2 63.5 13t48.5 24t33 28q53 -61 132 -61q47 0 80.5 19t55.5 45q80 -65 152 -65q62 0 105 49q25 30 31.5 72t-4.5 88t-25 86.5t-36 80.5t-31.5 56.5
t-16.5 26.5zM834 199q-10 0 -17 -7t-7 -17v0v-173q0 -10 -4 -19t-10.5 -15.5t-15.5 -10.5t-18 -4h-207h-288q-20 0 -34 14.5t-14 34.5v173q0 5 -2 9.5t-5 7.5t-7.5 5t-9.5 2q-10 0 -17 -7t-7 -17v-178q0 -25 12 -46t33.5 -33.5t45.5 -12.5h505q24 0 45.5 12.5t33.5 33.5
t12 46v178q0 10 -7 17t-17 7z" />
    <glyph glyph-name="uF0103" unicode="&#xf0103;" 
d="M679 413v273q-5 2 -15 6.5t-41.5 14t-63.5 14t-78.5 0.5t-90.5 -19zM704 253v421q7 -3 18 -8.5t40.5 -27.5t54.5 -47.5t51 -69t38 -92.5zM620 130l291 274q1 -2 2.5 -5.5t5.5 -16t6 -26.5t2.5 -38t-3 -50.5t-13.5 -62.5t-26 -75h-265zM471 95h393q-1 -2 -3 -7t-10.5 -19
t-18.5 -28t-28.5 -33t-39.5 -35t-52 -32t-65 -27zM343 182v-256q2 -1 6 -3.5t18 -8.5t29.5 -10.5t40.5 -8.5t51 -5t61 2.5t71 12.5zM115 169l199 179v-407q-1 1 -4 2t-12 6t-18 10.5t-22.5 16t-27 22.5t-29 29.5t-29.5 38t-29 47t-28 56.5zM110 198q-2 6 -4.5 16.5t-7 42.5
t-4.5 63.5t8.5 73.5t25.5 78h274zM146 501q1 3 3.5 7.5t11.5 19.5t19.5 29.5t29 34t39.5 36.5t50 34.5t61 30.5l187 -192h-401z" />
    <glyph glyph-name="uF0105" unicode="&#xf0105;" 
d="M711 308q-14 2 -18.5 8t-0.5 11l3 4q1 3 3 6.5t5 14.5t4 22t-3.5 24.5t-15.5 23.5q-13 14 -34.5 18t-42.5 0.5t-40.5 -8.5t-31.5 -10l-12 -6q-8 -2 -14 -3t-9.5 -1t-5.5 2t-3 4.5t-0.5 7t1.5 8t2.5 11t2.5 11.5q0 15 -2.5 27t-10.5 25.5t-21 20.5t-38 6.5t-58 -11.5
t-67 -34t-59.5 -47t-46.5 -47.5t-32 -37.5t-11 -15q-31 -41 -46 -82.5t-15 -61.5v-21q5 -46 27.5 -82t53.5 -59t73 -38.5t80.5 -23t81.5 -10.5q53 -4 110 5t110 29.5t96 55t64 78.5q11 25 14.5 47t0 39t-12 31t-19 24t-22.5 17t-22 11t-18 6zM421 10q-103 -5 -175 40
t-72 114q0 68 71.5 117.5t175.5 54.5q33 1 65 -2.5t59.5 -11.5t50 -20.5t38.5 -28.5t25 -36.5t9 -42.5q0 -73 -78 -128q-73 -52 -169 -56zM393 275q-28 -3 -49.5 -13t-34 -22.5t-21 -28.5t-12 -29t-4.5 -26.5t-0.5 -18.5t0.5 -7v-2q0 -2 0.5 -7t2 -9.5t4 -11t6.5 -12t10 -11
t14 -9.5q23 -13 47.5 -18.5t47 -3.5t43 9.5t37.5 20t30 29.5q16 20 17.5 51.5t-10.5 60t-45.5 46.5t-82.5 12zM359 93q-13 -1 -23.5 3t-16.5 12t-6 19q0 17 12.5 31t30.5 16q22 2 35.5 -9t13.5 -27t-13.5 -29t-32.5 -16zM440 163q-5 -3 -9.5 -4t-8.5 0.5t-6 5.5
q-2 3 -2.5 6.5t0 7t2.5 7t6 5.5q3 3 7 4t7.5 1t6 -2t4.5 -5q3 -6 1 -13.5t-8 -12.5zM778 364q8 0 14.5 5.5t7.5 13.5v2q4 31 -1 54.5t-15.5 36.5t-24.5 22t-28.5 11.5t-26.5 3t-20 -0.5l-7 -1q-9 0 -16 -7t-7 -16q0 -6 3 -11.5t8.5 -8.5t11.5 -3q75 17 80 -49l-2 -30
q5 -19 23 -22zM762 629q-48 11 -113 -2h-1l-2 -1l-1 -1q-10 -2 -16.5 -11t-6.5 -20q0 -9 4 -17t11.5 -12t16.5 -4q18 2 30 7q5 0 16.5 1.5t31 -3.5t39 -12.5t40.5 -25t35 -41.5q25 -57 10 -109q-6 -17 -6 -32q0 -7 2.5 -12.5t7 -9.5t10.5 -6t12 -2q14 0 21.5 5t10.5 23
q17 53 13 96.5t-18.5 75.5t-40.5 55.5t-52 37t-54 20.5z" />
    <glyph glyph-name="uF0106" unicode="&#xf0106;" 
d="M664 443q13 0 30 -1q-20 92 -108.5 153t-202.5 61q-127 0 -217.5 -75.5t-90.5 -184.5q0 -120 123 -205l-31 -92l108 53q6 -1 16 -3t16 -3t14.5 -2.5t15 -2.5t14.5 -2t16 -1.5t16 -0.5q7 0 14 0.5t15 0.5q-5 16 -7.5 32t-2.5 32q0 100 76.5 170.5t185.5 70.5zM499 526
q17 0 27.5 -10.5t10.5 -27.5q0 -8 -2.5 -15.5t-7.5 -12.5t-12.5 -7.5t-15.5 -2.5q-19 0 -33 11t-14 27q0 8 4 15.5t10.5 12.5t15 7.5t17.5 2.5zM283 450q-4 0 -8.5 0.5t-8.5 2t-8 3.5t-7 4.5t-5.5 5.5t-4.5 6.5t-3 7.5t-1 8q0 11 6.5 20t17 13.5t22.5 4.5q9 0 16 -2.5
t12 -7.5t7.5 -12t2.5 -16q0 -17 -10.5 -27.5t-27.5 -10.5zM945 206q0 90 -78 155.5t-183 65.5q-110 0 -186 -64.5t-76 -156.5t76 -156.5t186 -64.5q31 0 92 15l85 -46l-23 76q49 37 78 82t29 94zM599 244q-8 0 -15 4.5t-11.5 11.5t-4.5 14.5t4.5 14.5t11.5 11.5t15 4.5
q17 0 27.5 -9.5t10.5 -20.5q0 -4 -1 -8t-3.5 -7.5t-6 -6t-7.5 -5t-9.5 -3.5t-10.5 -1zM768 244q-7 0 -14 4.5t-11.5 11.5t-4.5 15q0 11 9.5 20.5t20.5 9.5q17 0 28 -9.5t11 -21.5t-11 -21t-28 -9z" />
    <glyph glyph-name="uF010B" unicode="&#xf010b;" 
d="M608 394l-4 4l-2 2q-2 2 -3.5 3t-3.5 2.5t-3.5 3t-3.5 2.5q-11 11 -27 11t-27 -11.5t-11 -27.5q0 -14 9 -25v0q4 -5 9 -8q7 -6 11 -10l3 -3q9 -8 14.5 -18.5t8 -21.5t2.5 -23t-2.5 -23.5t-7.5 -22.5t-11.5 -21.5t-15.5 -19.5l-172 -171q-30 -31 -73 -31t-73 31l-3 3
q-20 20 -27 46.5t0 53t27 46.5l76 76q16 12 16 33q0 17 -12.5 29.5t-29.5 12.5q-7 0 -13 -2t-11 -5l-1 -1l-8 -7l-79 -74q-56 -56 -56 -135t56 -135l3 -3q56 -56 135 -56t135 56l172 172q56 56 58.5 132.5t-52.5 132.5zM856 646l-4 3q-55 56 -134.5 56t-134.5 -56l-172 -171
q-37 -37 -50.5 -82.5t-2 -91.5t48.5 -82l3 -3l4 -3q1 -2 3 -3.5t3 -3.5q4 -4 9 -7v0q5 -2 9.5 -3.5t9.5 -1.5q15 0 25.5 11t10.5 26v3v3q0 2 -0.5 3.5t-1.5 3t-1 3.5q-3 6 -20 24l-4 3q-28 32 -22 69.5t38 69.5l172 172q30 30 72.5 30t73.5 -30l3 -4q30 -30 30 -73t-30 -73
l-76 -75q-8 -6 -12.5 -15t-4.5 -19q0 -17 12.5 -29.5t29.5 -12.5q6 0 11.5 1.5t10.5 4.5l1 1q6 4 10 9l80 73q55 56 55 135.5t-55 134.5z" />
    <glyph glyph-name="uF010D" unicode="&#xf010d;" 
d="M190 341q11 0 18.5 7.5t7.5 18.5q0 7 -3.5 13t-9.5 9.5t-13 3.5h-1h-62h-4q-4 0 -7.5 -1t-6.5 -2t-6 -3t-5.5 -4.5t-4.5 -5.5t-3.5 -6t-2 -7t-0.5 -7v-434q0 -7 2.5 -13.5t7.5 -11.5t11.5 -7.5t13.5 -2.5h6h61v0h1q5 0 9.5 2t8 5.5t5 8t1.5 9.5q0 10 -7 17.5t-17 7.5h-51
l2 403h49zM927 378q-27 43 -82 46h-5l-206 1q11 30 17 63.5t6 65.5q0 41 -9 83v-1q-8 36 -36.5 59t-64.5 23q-42 0 -69 -31t-27 -75v-10q-2 -80 -59 -139t-137 -68v-55l-1 -222v-230h11h500h9q9 0 17 1.5t14.5 5t15.5 9.5q25 16 38 42q3 5 5 11l77 345q2 5 1 12
q1 16 -2.5 32.5t-12.5 31.5zM894 325l-83 -368q-4 -9 -13 -15q-6 -4 -14 -5h-4l-477 1v407q77 35 121 72t67 102q6 17 9 33q3 13 4 27.5t1 22.5v8q-3 25 12 39t33 14q12 -1 24 -10t19 -21t7 -21q6 -28 6 -58q0 -16 -1.5 -30.5t-2.5 -20.5l-1 -6q-9 -46 -31 -87q0 -2 -1 -3.5
t-1.5 -3.5t-0.5 -4v-5q0 -13 10 -17.5t28 -4.5h239h15q6 0 12 -2t11 -5.5t8 -9.5q4 -6 5 -14t-1 -15zM265 -112v0v0z" />
    <glyph glyph-name="uF0112" unicode="&#xf0112;" 
d="M747 300q0 -39 27.5 -66.5t66.5 -27.5q19 0 36 7.5t30 20t20 30t7 36.5q0 25 -12.5 47t-34 34.5t-46.5 12.5q-39 0 -66.5 -27.5t-27.5 -66.5zM90 300q0 -8 1 -15.5t3.5 -14.5t5.5 -13.5t7.5 -12t9.5 -11t11 -9.5t12.5 -7.5t13.5 -5.5t14.5 -3.5t14.5 -1.5q39 0 66.5 27.5
t27.5 66.5t-27.5 66.5t-66.5 27.5q-25 0 -46.5 -12.5t-34 -34.5t-12.5 -47zM418 300q0 -25 12.5 -47t34 -34.5t47 -12.5t47.5 12.5t34.5 34.5t12.5 47q0 52 -44 80q-24 14 -50 14t-47.5 -12.5t-34 -34.5t-12.5 -47z" />
    <glyph glyph-name="uF0113" unicode="&#xf0113;" 
d="M510 707q-12 0 -23 -4t-19.5 -12t-14.5 -18l-97 -197l-223 -33q-18 -2 -31 -13t-19 -27q-12 -34 14 -60l164 -160l-38 -222q-3 -16 4 -32t22 -26q16 -10 36 -10q5 0 10 0.5t10 2.5l10 4l195 103l195 -103q14 -7 30 -7q19 0 35 10q32 22 26 58l-38 222l164 160
q26 26 14 60q-2 7 -5.5 12.5t-8 10t-10.5 8t-12 6t-13 3.5l-224 33l-97 197q-8 16 -23 25t-33 9z" />
    <glyph glyph-name="uF0114" unicode="&#xf0114;" 
d="M510 669q3 0 6 -1t6 -2.5t5 -4t4 -4.5l97 -198q3 -6 7.5 -10t10 -7t11.5 -4l224 -33q14 -2 18 -14q2 -5 0.5 -10.5t-5.5 -9.5l-164 -161q-14 -14 -11 -33l38 -222q1 -4 0 -7.5t-3 -7t-6 -5.5l-4 -2q-2 -1 -4.5 -1.5t-4.5 -0.5q-6 0 -12 3l-195 102q-9 5 -18 5
q-10 0 -19 -5l-195 -102q-5 -3 -11 -3q-8 0 -14 4q-11 7 -9 20l38 222q1 5 0.5 9.5t-2 8.5t-4 8t-5.5 7l-164 161q-9 8 -5 20q2 6 7 9.5t11 4.5l224 33q20 3 29 21l98 198q2 5 8 8.5t13 3.5zM510 707q-12 0 -23 -4t-19.5 -12t-14.5 -18l-97 -197l-223 -33q-18 -2 -31 -13
t-19 -27q-12 -34 14 -60l164 -160l-38 -222q-3 -16 4 -32t22 -26q16 -10 36 -10q5 0 10 0.5t10 2.5l10 4l195 103l195 -103q14 -7 30 -7q19 0 35 10q32 22 26 58l-38 222l164 160q26 26 14 60q-2 7 -5.5 12.5t-8 10t-10.5 8t-12 6t-13 3.5l-224 33l-97 197q-8 16 -23 25
t-33 9z" />
    <glyph glyph-name="uF0115" unicode="&#xf0115;" 
d="M730 -92l-394 392l394 392q5 5 7 11.5t1 12.5t-6 10q-6 7 -16.5 6.5t-18.5 -8.5l-406 -404q-2 -2 -4 -5.5t-3 -7.5t-1 -7q0 -5 2 -10.5t7 -9.5l405 -404q4 -4 9 -6t9.5 -2.5t9 1t7.5 5.5q7 6 6.5 16.5t-8.5 17.5z" />
    <glyph glyph-name="uF0116" unicode="&#xf0116;" 
d="M289.5 -126.5q6.5 -6.5 16.5 -6t18 8.5l406 404q9 8 8 20q1 12 -8 20l-406 404q-8 8 -18 8.5t-16.5 -6t-6 -17t8.5 -17.5l394 -392l-394 -392q-8 -7 -8.5 -17.5t6 -17z" />
    <glyph glyph-name="uF0117" unicode="&#xf0117;" 
d="M937 78.5q7 6.5 6 17t-8 17.5l-404 406q-8 9 -20 9t-21 -9l-403 -406q-8 -7 -8.5 -17.5t5.5 -17.5q5 -4 11 -5t12.5 1t11.5 7l392 394l391 -394q8 -8 18 -8.5t17 6z" />
    <glyph glyph-name="uF0118" unicode="&#xf0118;" 
d="M902 519l-391 -394l-392 394q-5 5 -11.5 7t-12.5 1t-11 -5q-6 -7 -5.5 -17.5t8.5 -17.5l403 -406q3 -3 6.5 -5t7 -3t7.5 -1q12 0 20 9l404 406q7 7 8 17.5t-6 17.5q-3 3 -7.5 4.5t-9 1t-9.5 -2.5t-9 -6z" />
    <glyph glyph-name="uF0119" unicode="&#xf0119;" 
d="M112 544q-10 0 -16 -6.5t-6 -15.5t6 -15.5t16 -6.5h71v44h-71zM694 544h-380v-44h375q6 0 12 -1.5t11 -4.5t9 -7t6.5 -9t4.5 -10.5t2 -11.5v-543q0 -6 2.5 -11t8 -8t11.5 -3q3 0 5.5 0.5t5 2t4.5 3.5t3.5 4.5t2.5 5.5t1 6v547q0 35 -24.5 59.5t-59.5 24.5zM273 114v577
q0 10 -6 16t-16 6q-6 0 -11 -2.5t-8 -8t-3 -11.5v-582q0 -35 24.5 -59.5t59.5 -24.5h374v44h-369q-9 0 -17.5 3.5t-14.5 9.5t-9.5 14.5t-3.5 17.5zM907 69h-88v-44h88q9 0 15.5 6.5t6.5 15.5q0 6 -3 11t-8 8t-11 3z" />
    <glyph glyph-name="uF011C" unicode="&#xf011c;" 
d="M886 486q-45 26 -124 -30q-43 -29 -83 -50t-66 -29t-49 -13t-30.5 -3.5t-11.5 0.5q-3 1 -12.5 -0.5t-35.5 3.5t-54.5 13t-71.5 29t-85 50q-80 56 -125 29q-55 -32 -39 -181l1 -10q17 -165 123 -253.5t289 -88.5h1q282 0 375 197q32 68 37 149v10l1 3q2 27 2.5 44.5
t-1.5 47.5t-12.5 51t-28.5 32zM880 315q-1 -11 -2 -14q-12 -216 -211 -280q-71 -22 -154 -23h-1v-23v23q-336 0 -365 300l-2 11q-13 119 16 136q19 12 75 -27q47 -32 93.5 -54t79.5 -30.5t58.5 -12t40.5 -3.5h14h14q12 0 35 4t53.5 13t74 30.5t90.5 52.5q55 38 74 28
q13 -8 17.5 -41t-0.5 -90zM811 356q-9 0 -16 -6.5t-7 -16.5v-1l1 -1h-1q1 -6 -4.5 -33.5t-26 -72t-52.5 -73.5q-8 -7 -8 -17q0 -9 7 -16t17 -7q4 0 8 1.5t7 4.5q29 25 50.5 60.5t31 67t13.5 54.5t3 32l1 1q0 6 -3.5 11.5t-8.5 8.5t-12 3zM326 459q6 0 11.5 3.5t8.5 8.5
q49 127 162 127q29 0 56.5 -8.5t51 -23.5t42.5 -37t31 -48v-1q0 -1 1 -2v0q3 -5 8.5 -8.5t11.5 -3.5q4 0 8.5 2t7.5 5t5 7.5t2 8.5q0 8 -5 14q-15 31 -38 57.5t-51.5 45t-62 28.5t-68.5 10q-49 0 -89.5 -20t-69 -54t-46.5 -82v-1v-5q0 -6 3 -11.5t8.5 -8.5t11.5 -3z" />
    <glyph glyph-name="uF0125" unicode="&#xf0125;" 
d="M238 481q-15 0 -28.5 5.5t-23.5 15t-15.5 22t-5.5 27t5.5 27t15.5 22.5q8 7 16 11.5t17 7t19 2.5q16 0 29 -5.5t23 -15.5q22 -20 22 -49q0 -15 -5.5 -27.5t-15.5 -22t-24 -14.5q-3 -1 -6.5 -2.5t-7 -2t-7.5 -1t-8 -0.5zM466 549q39 11 73.5 19t64.5 13q60 9 105.5 8
t78 -10t54.5 -22q51 -30 64 -84q3 -21 6 -45t4 -51q4 -46 3 -112q0 -64 -8 -146q-4 -41 -19 -67.5t-35.5 -44t-46.5 -25.5q-13 -4 -25.5 -6.5t-25.5 -4.5q-61 -6 -137 13l14 62l62 -14q11 -1 20 -0.5t17 2t14.5 4t12.5 6t10.5 7.5t8.5 8l4 6l4 6q2 3 3 7q10 22 10 51v305
q1 87 -75 99t-217 -41l43 -12q-2 -10 -12 -25q-11 -16 -23 -34h251v-53h-142v-67h141v-53h-141v-112q34 12 58 31l-12 48l66 22l56 -142l-82 -36l-15 57q-5 -4 -10.5 -7.5t-11.5 -8t-13 -8.5q-21 -13 -51.5 -23t-70 -16.5t-88.5 -4.5q-27 -1 -46 5t-31.5 18t-19.5 27t-10 31
q-8 38 1 86l3 3h101q-1 -18 -4 -40.5t6 -38.5q7 -12 22.5 -15.5t28.5 -3.5q1 -1 5 -1v129h-145v53h145v67h-37q-13 -14 -24 -26l-20 -21l-9 -9l-10 -10l-43 40q4 5 7.5 9.5t7.5 9.5l8 10q11 16 22 33q5 8 10 16.5t9 16.5q5 8 9.5 15.5t7.5 14.5l-24 -10l-24 -12l-26 -32
q-14 -17 -30 -33l-11 6q-15 9 -24 15q-8 5 -17 10t-19 11q9 9 18 18.5t16.5 20t15.5 22.5q21 36 36 69q9 19 16.5 39t13.5 41l104 -30l-7 -14l-7 -17q-5 -10 -12 -22zM177 453q12 -9 21.5 -16.5t17.5 -14.5q14 -11 25 -21q11 -9 22 -21q12 -12 27 -28q26 -26 25.5 -63.5
t-15.5 -86.5l-8 -26l-2 -6q-1 -3 -2.5 -6.5t-2.5 -6.5q-4 -10 -9 -21q-2 -3 -4 -7.5t-5.5 -12t-4.5 -10.5l-22 -48q-13 -29 -32 -73l-113 74q36 33 66 66q26 27 51 57t34 51q11 21 7.5 38t-11.5 28q-10 12 -25 22l-87 57z" />
    <glyph glyph-name="uF0126" unicode="&#xf0126;" 
d="M881 530l-141 141q-23 22 -52.5 24t-49.5 -18l-471 -471l248 -249l471 471q13 13 17 31.5t-2 37t-20 33.5zM412 20l-182 182l357 357l181 -182zM853 462l-50 -50l-181 182l49 49q8 8 19 7.5t20 -9.5l141 -141q5 -5 7.5 -12.5t1 -14.5t-6.5 -11zM167 -43l34 213l-34 35
l-46 -267q-3 -12 5.5 -20.5t20.5 -5.5l267 46l-34 34z" />
    <glyph glyph-name="uF012A" unicode="&#xf012a;" 
d="M913 -56l-357 357l357 357q4 4 6 9.5t2 11t-2 11t-6 9.5q-9 8 -21 8t-20 -8l-357 -357l-357 357q-8 8 -20 8t-20 -8q-4 -4 -6 -8t-2.5 -8.5t0 -8.5t2.5 -8t6 -8l357 -357l-357 -357q-4 -4 -6.5 -9.5t-2.5 -10.5t2.5 -10.5t6.5 -9.5q8 -9 20 -9t20 9l357 357l357 -357
q8 -9 20 -9t21 9l4 6q2 3 3 6.5t1 7.5t-1 7.5t-3 7t-4 5.5z" />
    <glyph glyph-name="uF012B" unicode="&#xf012b;" 
d="M165 148q-29 -33 -29.5 -74.5t27.5 -66.5l111 -100l6 -4q6 -4 12.5 -6.5t14.5 -3.5q41 -6 105 25q25 12 51 29t54 38.5t56.5 46.5t57.5 54.5t57 62t53 65.5t45.5 65t38 63t30.5 59.5t21 55.5q31 97 -3 135l-4 5l-112 99q-18 16 -42 19q-25 4 -51 -6.5t-45 -32.5l-70 -82
q-29 -34 -29.5 -75.5t27.5 -66.5l106 -95q-18 -26 -38.5 -52.5t-42.5 -52.5q-45 -52 -92 -96l-107 95q-18 15 -42 19q-25 3 -51 -7.5t-45 -32.5zM708 666q10 -2 16 -8l12 -10l-146 -167l-11 9q-11 10 -10 28q0 7 2 14.5t5.5 14.5t9.5 14l70 81q24 28 52 24zM236 11l146 167
l78 -71l21 -19l32 31q49 46 96 100q11 13 22.5 26.5t22 27.5t20.5 27.5t20 27.5l26 37l-34 30l-64 57l148 169l65 -61l2 -2q2 -3 3 -8.5t1 -15.5t-3 -26.5t-9 -35.5q-20 -60 -65 -135q-23 -39 -52 -78t-62 -77q-66 -77 -136 -135q-66 -56 -123 -83q-51 -25 -77 -21
q-4 0 -6 1l-2 2zM185 73q0 22 17 42l70 82q24 27 52 23q10 -1 16 -7l9 -8l-145 -167l-9 6q-11 10 -10 29z" />
    <glyph glyph-name="uF012C" unicode="&#xf012c;" 
d="M754 276l-220 221q-5 8 -13 11q-5 2 -10 1h-1v1l-1 -1q-5 0 -10 -1q-9 -3 -14 -11l-220 -221q-3 -3 -5 -8t-1.5 -10.5t2.5 -10.5t6 -9q8 -9 19.5 -9t18.5 7l1 1l2 2l173 173l1 -413v-3q0 -10 8 -17.5t19.5 -7.5t20 7.5t8.5 17.5v416l174 -173l3 -3q5 -5 11.5 -6.5
t13.5 0.5t13 8q8 8 8.5 19.5t-7.5 18.5zM865 602q0 -5 -2 -9.5t-5 -8t-8 -5.5t-10 -2h-660q-11 0 -18 7.5t-7 17.5t7 17.5t18 7.5h660q11 0 18 -7.5t7 -17.5z" />
    <glyph glyph-name="uF012D" unicode="&#xf012d;" 
d="M688 155l-147 147l147 146q6 7 6 16t-6 16q-5 4 -10.5 5.5t-11.5 0t-10 -5.5l-147 -146l-146 146q-4 3 -8 5t-8.5 2t-8.5 -2t-7 -5q-5 -4 -6.5 -10t0 -12t6.5 -10l146 -146l-146 -147q-7 -7 -7 -16t7 -16q4 -4 10 -5.5t11.5 0t10.5 5.5l146 147l147 -147q6 -7 15.5 -7
t16.5 7q4 4 5.5 10t0 12t-5.5 10zM938 302q0 43 -8.5 86t-25 81t-39.5 72.5t-52 63.5t-64 52.5t-73 39.5t-80.5 25t-86.5 9q-116 0 -215 -57.5t-156.5 -156.5t-57.5 -215.5t57.5 -215.5t156.5 -156.5t215 -57.5q143 0 259 88l2 4q1 2 1.5 4t0.5 4q0 6 -2.5 10t-6.5 6.5
t-10 2.5q-8 0 -13 -5h-1q-103 -76 -229 -76q-106 0 -195.5 52t-141.5 141.5t-52 195t52 195t141.5 141.5t195 52t195 -52t141.5 -141.5t52 -194.5q0 -99 -44 -182q-1 -4 -1 -6q0 -5 2.5 -9.5t7 -7t9.5 -2.5q13 0 18 13q48 93 48 197z" />
    <glyph glyph-name="uF0131" unicode="&#xf0131;" 
d="M926 529l1 4q0 1 -1 2v2v1q-1 4 -3 7l-1 1q-2 3 -5 6l-2 1l-6 2q0 1 -1 1h-2h-2l-1 1h-543h-100l-29 89q-4 17 -22 18h-1v1l-83 15q-7 1 -12.5 -1.5t-9.5 -7t-5 -11.5q-2 -10 4 -17.5t15 -9.5l72 -13l123 -380l-57 -141v-1l-1 -1l-2 -4q0 -2 -1 -5v-1v-2v-1l1 -5
q1 -3 1 -4q1 -1 3 -4l3 -3l1 -1v-1h2l1 -1l4 -2q2 -1 6 -1h1h594q6 0 11.5 3t8.5 8.5t3 11.5q0 10 -7 17t-16 7h-551l36 104l3 -7h92h341h1h1h1q9 -2 17.5 3.5t10.5 14.5l104 299l1 2l1 3v0v1zM404 5q-12 0 -22 -5.5t-15.5 -15.5t-5.5 -21q0 -18 12.5 -30.5t30 -12.5
t30 12.5t12.5 30t-12.5 30t-29.5 12.5zM731 5q-9 0 -17 -3t-13.5 -9t-9 -14t-3.5 -16q0 -7 2 -13.5t6 -12t9.5 -9.5t12 -6t13.5 -2q18 0 30.5 12.5t12.5 30t-12.5 30t-30.5 12.5z" />
    <glyph glyph-name="uF0137" unicode="&#xf0137;" 
d="M794 533q-4 9 -13 13t-18 0t-13 -13t-0.5 -18t6.5 -18t5.5 -17.5t4.5 -17.5t3.5 -17.5t2 -17t0.5 -17.5q0 -66 -77 -197q-27 -45 -61 -96q-44 -65 -97 -132q-7 -9 -13.5 -17t-12.5 -16q-13 16 -26 33q-52 67 -97 132q-34 51 -61 96q-37 64 -57 114t-20 83q0 53 21 101.5
t56 83.5t83 55.5t101 20.5q74 0 139 -41q8 -6 18 -3.5t15 10.5q3 6 3.5 12t-2.5 11.5t-9 9.5q-12 8 -25 14.5t-26.5 12t-27.5 9.5t-28 7t-28.5 4t-28.5 1q-127 0 -217.5 -90.5t-90.5 -217.5q0 -79 83 -221q9 -15 20 -31l20 -34q11 -16 23 -34q23 -33 48 -67t51 -67
q18 -23 32 -41q3 -4 5.5 -7t4 -5t3.5 -3q4 -6 11 -8t13.5 0t11.5 8q7 8 13 15q15 18 32 41q54 69 99 134q36 53 63 99q83 142 83 221q0 59 -25 123zM369 401q0 -56 39.5 -95.5t95.5 -39.5q37 0 68 18t49 49t18 68q0 56 -39.5 95.5t-95.5 39.5q-37 0 -68 -18t-49 -49.5
t-18 -67.5zM592 401q0 -18 -7 -34.5t-19 -28t-28 -18.5t-34 -7q-36 0 -62 25.5t-26 62t26 62.5t62 26t62 -26t26 -62z" />
    <glyph glyph-name="uF0156" unicode="&#xf0156;" 
d="M578 296q22 11 34 18.5t29 22t25 34.5t8 46q0 63 -48.5 102.5t-125.5 39.5q-56 0 -101.5 -29.5t-62.5 -77.5q-5 -13 -6.5 -27.5t1.5 -32.5q2 -9 10 -14t17 -3t14 10t3 17q-1 5 -0.5 10.5t1.5 12t3 11.5q5 15 15.5 28.5t25.5 24.5t36 17.5t44 6.5q57 0 93 -26.5t36 -69.5
q0 -12 -3.5 -22.5t-9 -17.5t-15.5 -14.5t-19 -12.5t-25 -13q-19 -10 -30 -16.5t-26 -19.5t-22.5 -29.5t-7.5 -37.5v-57q0 -10 7 -16.5t16.5 -6.5t16 6.5t6.5 16.5v57q0 20 13.5 32.5t47.5 29.5zM460 78q0 -14 10 -24t24 -10q7 0 13.5 2.5t11 7t7.5 11t3 13.5q0 9 -5 17
t-12.5 12.5t-17.5 4.5q-14 0 -24 -10t-10 -24zM946 301q0 35 -5.5 70t-16.5 67.5t-26.5 62.5t-35 57t-43.5 51t-51 43.5t-57.5 35.5t-62.5 27t-67 16.5t-71 5.5q-71 0 -137.5 -22t-120.5 -62.5t-94 -94t-62.5 -120t-22.5 -137.5q0 -89 35 -170t93 -139.5t139 -93t170 -34.5
q145 0 263 89q2 3 3.5 6t1.5 7q0 8 -6 13.5t-14 5.5t-14 -6q-25 -18 -52 -32t-56.5 -24t-61 -15.5t-64.5 -5.5q-107 0 -198 53t-144 144t-53 198.5t53 198.5t144 144t198 53q81 0 154 -31.5t126 -84.5t84.5 -126t31.5 -154q0 -99 -45 -184q-1 -4 -1 -6q0 -8 5.5 -13.5
t13.5 -5.5q13 0 18 12q49 96 49 201z" />
    <glyph glyph-name="uF0159" unicode="&#xf0159;" 
d="M509 310q119 0 216.5 24t152.5 65.5t55 92.5q0 26 -14.5 49.5t-41.5 43.5t-65.5 36.5t-85 28t-102 18t-115.5 6.5q-119 0 -216.5 -24t-152.5 -65.5t-55 -92.5q0 -26 14.5 -49.5t41.5 -43.5t65.5 -36.5t85 -28t102 -18t115.5 -6.5zM509 628q81 0 153 -12.5t120.5 -31.5
t76.5 -43.5t28 -48.5t-28 -48.5t-76.5 -43.5t-120.5 -31.5t-153 -12.5t-153 12.5t-120.5 31.5t-76.5 43.5t-28 48.5t28 48.5t76.5 43.5t120.5 31.5t153 12.5zM509 118q119 0 216 23.5t152 65t55 91.5q0 40 -36 76h-1v1v-1q-3 3 -6.5 4.5t-7.5 1.5q-9 0 -15 -6t-6 -15t7 -15
q22 -22 22 -46q0 -19 -18 -38.5t-52 -37t-79.5 -31.5t-105.5 -22t-125 -8q-54 0 -105.5 6t-92.5 15.5t-75.5 23t-57.5 28.5t-35.5 31.5t-12.5 32.5q0 26 22 46l1 1v0q6 6 6 14q0 9 -6.5 15t-14.5 6q-5 0 -8.5 -1.5t-6.5 -4.5q-18 -17 -27.5 -36t-9.5 -40q0 -50 55 -91.5
t152 -65t216 -23.5zM896 182l-1 1v0q-6 5 -14 5q-9 0 -15 -6t-6 -14q0 -9 7 -16t12 -14.5t7.5 -15.5t2.5 -15q0 -19 -18 -39t-52 -37.5t-79.5 -31t-105.5 -21.5t-125 -8q-81 0 -153 12t-120.5 32t-77 44.5t-28.5 48.5q0 26 22 46h1v1q6 6 6 14t-6 14.5t-15 6.5t-15 -7v1
q-18 -18 -27.5 -37t-9.5 -39q0 -51 55.5 -92.5t152 -65t215.5 -23.5t216 23.5t152 65t55 92.5q0 39 -36 75v0z" />
    <glyph glyph-name="uF015C" unicode="&#xf015c;" 
d="M621 428h2l3 -2q10 -4 22 -2t23 8.5t20.5 17.5t16.5 25q15 31 10.5 59t-26.5 39q-22 10 -47 -3t-40 -44q-14 -27 -11 -53q1 -16 8 -27.5t19 -17.5zM644.5 506.5q4.5 9.5 11 16t10.5 8.5t6 2q1 -1 2 -4t1 -8t-1.5 -12t-5.5 -14q-4 -10 -10.5 -16.5t-11 -8.5t-5.5 -2
q-2 2 -3 6.5t0.5 13.5t6 18.5zM710 364q4 -3 9 -4q18 -7 37.5 2t32.5 29q6 9 9 18.5t3.5 19t-2 18t-7 15.5t-12.5 12q-12 7 -26.5 6.5t-28.5 -9.5t-24 -24q-9 -15 -11.5 -31.5t3 -30t17.5 -21.5zM739 423q9 14 17 13q2 0 1 -7t-6 -14q-8 -14 -17 -13q-2 1 -1 7.5t6 13.5z
M850 346q-10 18 -34 22t-46 -9q-23 -13 -32 -34.5t2 -40.5q1 -2 3 -4.5t4.5 -5t5 -4t5.5 -3t6 -3.5q27 -9 55 7q3 2 5.5 3.5t4.5 3t4 3.5l4 4l4 4q2 2 3.5 4t3 4.5t2.5 4.5q11 24 0 44zM798 310q-11 -6 -19 -4q0 3 3.5 7t9.5 8q10 5 19 4q-2 -8 -13 -15zM627 404l-151 93
l-3 2q-62 26 -117 -7q-23 -13 -38 -34t-20 -47q-6 -36 18 -115q6 -21 9 -32.5t6 -29.5t2 -31t-6 -24q-6 -15 -16.5 -26.5t-19 -17.5t-24.5 -16q-13 -8 -20.5 -13t-19 -15t-20.5 -22t-17 -26q-26 -50 -6 -100q22 -56 94 -82l1 -1q49 -17 99 9t77 64q0 1 1 1v1l1 1q1 2 2 3h-1
l1 1l1 1q2 6 1 12t-5 10.5t-10 6.5q-16 6 -26 -8q-35 -38 -65 -54.5t-62 -4.5q-53 19 -68 56q-5 15 -4 31.5t9 31.5q5 11 12 20t16 16.5t15 11.5l18 12q18 11 28 18.5t24.5 23.5t24.5 36q9 22 9 50t-4.5 46.5t-14.5 52.5q-21 69 -16 95q3 15 12.5 28.5t23.5 21.5q34 20 73 6
q1 -1 3 -1l149 -92q79 -53 38 -142q-10 -21 -22.5 -40t-23 -33t-24.5 -29.5t-23.5 -25t-24.5 -22.5v-1q-1 -1 -2.5 -3.5t-2.5 -4.5q-3 -9 1 -17.5t13 -11.5q13 -5 23 5q86 81 126 164q28 60 14.5 110.5t-68.5 87.5zM371 514q4 -1 8.5 -2t9.5 -2q36 -2 63.5 30.5t30.5 82.5
q3 42 -14 75.5t-47 43.5q-9 4 -18 4q-38 3 -66 -34q-25 -32 -28 -78q-2 -42 14.5 -75.5t46.5 -44.5zM355 631q2 33 18 54q14 18 28 17q3 0 6 -1q14 -5 23.5 -26.5t7.5 -48.5q-2 -31 -16.5 -51.5t-29.5 -19.5q-3 0 -6 1q-14 5 -23.5 26t-7.5 49zM520 488q24 -8 49 9t37 51
q8 23 7 43.5t-10.5 36t-25.5 20.5q-24 9 -49 -8.5t-37 -50.5q-7 -23 -6.5 -43.5t10 -36t25.5 -21.5zM562.5 606.5q2.5 -0.5 4.5 -6t1.5 -16t-4.5 -21.5q-2 -7 -5.5 -13t-7 -10t-7 -6t-6 -3t-3.5 -1q-2 1 -4 6.5t-2 15.5t4 21.5t10.5 20t11.5 11t7.5 2z" />
    </font>
</defs>
</svg>
